<?xml version="1.0" standalone="no"?>
<!DOCTYPE svg PUBLIC "-//W3C//DTD SVG 1.1//EN" "http://www.w3.org/Graphics/SVG/1.1/DTD/svg11.dtd" >
<svg xmlns="http://www.w3.org/2000/svg">
<metadata></metadata>
<defs>
<font id="webfontuploaded_file" horiz-adv-x="876" >
<font-face units-per-em="2048" ascent="1389" descent="-659" />
<missing-glyph horiz-adv-x="430" />
<glyph unicode="&#xfb01;" horiz-adv-x="944" d="M55 -6v41q72 4 91.5 24.5t19.5 85.5v746h-107v63q76 2 95.5 23.5t21.5 105.5q4 119 29 181q55 131 198 131q74 0 119 -42t45 -110q0 -78 -65 -78q-63 0 -64 60q0 10 6 37q2 8 2 24q0 57 -45 57q-41 0 -67 -43q-25 -43 -25 -172v-161h183v-76h-183v-746q0 -66 20.5 -86 t92.5 -24v-41q-102 12 -184.5 12t-182.5 -12zM526 -6v41q72 6 91.5 25.5t19.5 84.5v648q0 80 -17.5 99t-93.5 21v35q131 14 254 53v-856q0 -66 19.5 -86t91.5 -24v-41q-100 12 -182.5 12t-182.5 -12zM612 1255q0 41 30 70t71 29t69.5 -30t28.5 -69q0 -41 -28.5 -70.5 t-69.5 -29.5t-71 29.5t-30 70.5z" />
<glyph unicode="&#xfb02;" horiz-adv-x="935" d="M55 -6v41q72 4 91.5 24.5t19.5 85.5v746h-107v63q76 2 95.5 23.5t23.5 105.5q0 311 228 312q84 0 131 -60q119 12 241 54v-1244q0 -66 20.5 -86t90.5 -24v-41q-102 12 -182 12t-183 -12v41q70 4 90.5 24.5t20.5 85.5v1029q0 78 -12.5 99t-63.5 25q10 -29 10 -55 q0 -78 -65.5 -78t-65.5 60q0 12 8 39q2 8 3 24q0 53 -48 53q-43 0 -65 -43q-27 -43 -27 -170v-161h183v-76h-183v-746q0 -66 20.5 -86t92.5 -24v-41q-102 12 -184.5 12t-182.5 -12z" />
<glyph unicode="&#xfb03;" horiz-adv-x="1454" d="M61 -6v41q70 4 90.5 24.5t20.5 85.5v746h-106v63q76 2 95 23.5t21 105.5q4 119 29 181q55 131 199 131q74 0 118.5 -42t44.5 -112q0 -76 -65 -76q-63 0 -64 60q0 16 5 28q4 14 4 35q0 55 -45 55q-41 0 -68 -43q-25 -43 -25 -172v-161h183v-76h-183v-746q0 -66 20.5 -86 t92.5 -24v-41q-102 12 -184.5 12t-182.5 -12zM545 -6v41q70 4 90 24.5t20 85.5v746h-106v63q76 2 95.5 23.5t21.5 105.5q4 119 28 181q27 61 79 96t118 35q76 0 121 -42t45 -112q0 -76 -66 -76q-29 0 -47 16.5t-18 43.5q0 16 4 28q4 14 4 35q0 55 -45 55q-43 0 -66 -43 q-25 -43 -24 -172v-161h182v-76h-182v-746q0 -66 20.5 -86t89.5 -24v-41q-102 12 -182 12q-82 0 -182 -12zM1028 -6v41q72 6 91.5 25.5t19.5 84.5v648q0 78 -18.5 98t-92.5 22v35q135 14 254 53v-856q0 -66 20.5 -86t90.5 -24v-41q-106 12 -183 12q-80 0 -182 -12z M1104 1259.5q0 40.5 29.5 69.5t70.5 29t70 -30t29 -68q0 -41 -29 -71t-70 -30t-70.5 30t-29.5 70.5z" />
<glyph unicode="&#xfb04;" horiz-adv-x="1447" d="M61 -6v41q70 4 90.5 24.5t20.5 85.5v746h-106v63q76 2 95 23.5t21 105.5q4 119 29 181q55 131 199 131q74 0 118.5 -42t44.5 -112q0 -76 -65 -76q-63 0 -64 60q0 16 5 28q4 14 4 35q0 55 -45 55q-41 0 -68 -43q-25 -43 -25 -172v-161h183v-76h-183v-746q0 -66 20.5 -86 t92.5 -24v-41q-102 12 -184.5 12t-182.5 -12zM545 -6v41q70 4 90 24.5t20 85.5v746h-106v63q76 2 95.5 23.5t23.5 105.5q0 115 26 181q27 61 80 96t119 35q88 0 135 -60q123 12 256 54v-1244q0 -66 19.5 -86t91.5 -24v-41q-106 12 -182 12t-185 -12v41q72 4 92.5 24.5 t20.5 85.5v1033q0 76 -16.5 97t-77.5 23q10 -25 10 -55q0 -78 -66 -78q-29 0 -47 16.5t-18 43.5q0 4 4 28q6 25 6 35q0 55 -47 55q-39 0 -66 -43q-25 -43 -24 -172v-161h182v-76h-182v-746q0 -66 20.5 -86t89.5 -24v-41q-102 12 -182 12q-82 0 -182 -12z" />
<glyph horiz-adv-x="2048" />
<glyph horiz-adv-x="2048" />
<glyph unicode="&#xd;" horiz-adv-x="681" />
<glyph unicode=" "  horiz-adv-x="430" />
<glyph unicode="&#x09;" horiz-adv-x="430" />
<glyph unicode="&#xa0;" horiz-adv-x="430" />
<glyph unicode="!" horiz-adv-x="434" d="M121 86q0 41 29.5 69.5t70.5 28.5t69.5 -28.5t28.5 -69.5t-28.5 -70.5t-69.5 -29.5t-70.5 29.5t-29.5 70.5zM147 1339h142l-31 -929h-82z" />
<glyph unicode="&#x22;" horiz-adv-x="638" d="M143 1366h125l-18 -549h-88zM373 1366h125l-19 -549h-90z" />
<glyph unicode="#" horiz-adv-x="1015" d="M70 434l14 111h184l37 301h-184l14 110h184l54 410h102l-53 -410h237l52 410h102l-51 -410h184l-14 -110h-184l-37 -301h184l-14 -111h-185l-55 -434h-102l55 434h-238l-55 -434h-102l55 434h-184zM371 545h237l37 301h-237z" />
<glyph unicode="$" d="M90 -31v445h39q20 -170 92 -266.5t187 -104.5v584q-172 92 -226 151q-78 88 -78 238q0 158 83 259t221 111v164h55v-164q121 -12 192 -108l50 115h26v-379h-39q-27 150 -82 224.5t-147 84.5v-530q25 -16 61 -39q152 -88 207 -170t55 -217q0 -164 -90 -271.5t-233 -115.5 v-164h-55v164q-129 12 -230 118l-61 -129h-27zM231 1069q0 -84 38 -136t139 -108v496q-82 -14 -129.5 -82t-47.5 -170zM463 43q90 14 142 87t52 185q0 100 -43 163t-151 118v-553z" />
<glyph unicode="%" horiz-adv-x="1015" d="M63 1055q0 139 62.5 231t157 92t153 -90t58.5 -235q0 -143 -60.5 -236.5t-154.5 -93.5q-96 0 -156 91t-60 241zM154 0l641 1366h67l-641 -1366h-67zM172 1063q0 -291 106.5 -291t106.5 277q0 281 -104 280q-51 0 -80 -70.5t-29 -195.5zM522 317q0 141 62.5 233.5 t157 92.5t152.5 -90t58 -235.5t-60.5 -237.5t-156.5 -92q-94 0 -153.5 92t-59.5 237zM631 311q0 -274 106.5 -274t106.5 278.5t-105 278.5q-108 0 -108 -283z" />
<glyph unicode="&#x26;" horiz-adv-x="987" d="M66 346q0 115 51 205t180 201q-78 143 -98.5 196t-20.5 119q0 119 68.5 197.5t171.5 78.5q94 0 153.5 -70.5t59.5 -182.5q0 -88 -38 -165t-138 -192l268 -457q61 111 61 226q0 37 -18 51t-68 18v60q63 -10 119 -10q57 0 121 10v-60q-57 -4 -72.5 -19t-23.5 -77 q-14 -154 -78 -266l43 -78q39 -66 59.5 -79t81.5 -17v-41q-63 8 -104 8q-43 0 -103 -8l-61 110q-72 -70 -132.5 -98.5t-135.5 -28.5q-152 0 -249 103.5t-97 265.5zM205 336q0 -127 62.5 -206t162.5 -79q98 0 211 113l-283 481q-84 -78 -118.5 -146.5t-34.5 -162.5zM287 1114 q0 -102 102 -270q78 88 108.5 147.5t30.5 128.5q0 74 -32.5 121t-81.5 47q-53 0 -90 -50t-37 -124z" />
<glyph unicode="'" horiz-adv-x="409" d="M143 1366h125l-18 -549h-88z" />
<glyph unicode="(" horiz-adv-x="526" d="M129 483q0 557 242 916h53q-152 -375 -152 -916q0 -539 152 -915h-53q-242 356 -242 915z" />
<glyph unicode=")" horiz-adv-x="526" d="M102 -432q152 375 152 915.5t-152 915.5h54q242 -354 241 -916q0 -559 -241 -915h-54z" />
<glyph unicode="*" d="M193 1067l26 100l182 -77l-8 235h90l-8 -235l184 77l27 -100l-188 -61l127 -189l-68 -63l-119 204l-116 -204l-70 63l127 189z" />
<glyph unicode="+" d="M98 631v121h285v358h111v-358h286v-121h-286v-359h-111v359h-285z" />
<glyph unicode="," horiz-adv-x="403" d="M72 -342q53 68 95 166t46 168h-6q-6 -4 -14 -4q-37 0 -59.5 28.5t-22.5 73.5q0 49 27.5 81t68.5 32q45 0 71.5 -37t26.5 -98q0 -180 -151 -410h-82z" />
<glyph unicode="-" horiz-adv-x="440" d="M10 502v92h420v-92h-420z" />
<glyph unicode="." horiz-adv-x="403" d="M106 90q0 41 30 69.5t71 28.5q39 0 68.5 -28.5t29.5 -69.5t-28.5 -70.5t-69.5 -29.5t-71 29.5t-30 70.5z" />
<glyph unicode="/" horiz-adv-x="681" d="M-131 -397l694 1763h90l-694 -1763h-90z" />
<glyph unicode="0" d="M96 698q0 195 46 354.5t124 229.5q78 72 176 72q111 0 195 -92q63 -70 104 -238t41 -356q0 -346 -106 -537q-84 -150 -236 -149q-168 0 -256 184t-88 532zM250 696q0 -655 192 -655q90 0 138.5 157.5t48.5 456.5q0 381 -66 527q-49 113 -123 112q-90 0 -140 -157.5 t-50 -440.5z" />
<glyph unicode="1" d="M199 1120v49q102 8 177 69.5t99 160.5h49v-1219q0 -82 21.5 -105.5t107.5 -31.5v-49q-98 12 -202.5 12t-202.5 -12v49q86 8 107.5 31.5t21.5 105.5v940h-178z" />
<glyph unicode="2" d="M115 0v115q256 375 387 630q76 147 76 281q0 96 -48.5 154.5t-126.5 58.5q-186 0 -215 -285h-53q10 176 68 273q78 127 241 127q127 0 208 -87t81 -225q0 -125 -86 -283.5t-401 -615.5h497l-16 -143h-612z" />
<glyph unicode="3" d="M102 379h58q12 -293 215 -293q106 0 167.5 81t61.5 218q0 166 -78 238q-59 55 -188 55h-12v72q123 2 176 63q63 80 63 201q0 109 -46 172t-128 63q-170 0 -209 -252h-51q29 356 295 357q131 0 210 -88t79 -234q0 -231 -211 -307q254 -72 254 -344q0 -174 -97.5 -286.5 t-246.5 -112.5q-147 0 -229.5 104.5t-82.5 292.5z" />
<glyph unicode="4" d="M41 354l444 1014h146v-885h168v-129h-168v-385h-148v385h-442zM160 483h325v758z" />
<glyph unicode="5" d="M123 322h57q23 -236 191 -236q104 0 167.5 103.5t63.5 273.5q0 162 -58.5 256t-158.5 94q-123 0 -195 -154l-63 5l117 671h461l-15 -143h-393l-78 -395q86 115 217 114q143 0 232.5 -122.5t89.5 -323.5q0 -121 -40 -230.5t-106 -171.5q-84 -82 -204 -81q-267 0 -285 340z " />
<glyph unicode="6" d="M98 457q0 260 185 549q131 207 327 413h84q-102 -119 -199.5 -265t-148.5 -259q63 27 117 27q135 0 222 -130t87 -331q0 -211 -94 -345t-240 -134q-150 0 -245 133t-95 342zM256 440q0 -193 46 -296t132 -103t132 103.5t46 297.5q0 412 -176 412q-180 0 -180 -414z" />
<glyph unicode="7" horiz-adv-x="878" d="M100 1186v149h676l-473 -1335h-133l475 1186h-545z" />
<glyph unicode="8" d="M119 369q0 231 184 331q-160 86 -160 301q0 156 84 254.5t217 98.5q131 0 210 -95.5t79 -250.5q0 -215 -162 -308q188 -82 189 -327q0 -176 -88 -283.5t-233.5 -107.5t-232.5 105.5t-87 281.5zM268 365q0 -150 46 -237t124 -87t125 87t47 232q0 141 -45 224.5 t-122.5 83.5t-126 -83t-48.5 -220zM293 1004q0 -131 38 -204t107 -73q68 0 107 75t39 204q0 137 -37 212.5t-105 75.5q-72 0 -110.5 -76.5t-38.5 -213.5z" />
<glyph unicode="9" d="M121 877q0 209 89 343t228 134q145 0 236.5 -133.5t91.5 -346.5q0 -256 -170 -542q-150 -242 -309 -418h-84q96 115 188 264.5t141 263.5q-59 -29 -114 -28q-129 0 -213 131t-84 332zM276 907q0 -426 168 -426q170 0 170 391q0 422 -168 422q-170 0 -170 -387z" />
<glyph unicode=":" horiz-adv-x="403" d="M100 84q0 41 30 69.5t71 28.5t69.5 -29.5t28.5 -68.5q0 -41 -28.5 -70.5t-69.5 -29.5t-71 29.5t-30 70.5zM106 770q0 41 30 69.5t71 28.5q39 0 68.5 -28.5t29.5 -69.5t-28.5 -70.5t-69.5 -29.5t-71 29.5t-30 70.5z" />
<glyph unicode=";" horiz-adv-x="405" d="M72 -342q53 68 95 166t46 168h-6q-6 -4 -14 -4q-37 0 -59.5 28.5t-22.5 73.5q0 49 27.5 81t68.5 32q45 0 71.5 -37t26.5 -98q0 -180 -151 -410h-82zM106 772q0 41 30 69.5t71 28.5q39 0 68.5 -29.5t29.5 -68.5q0 -41 -28.5 -70.5t-69.5 -29.5t-71 29.5t-30 70.5z" />
<glyph unicode="&#x3c;" horiz-adv-x="839" d="M82 692v13l676 544v-69l-525 -428l525 -439v-186z" />
<glyph unicode="=" d="M98 496v120h682v-120h-682zM98 764v121h682v-121h-682z" />
<glyph unicode="&#x3e;" horiz-adv-x="839" d="M82 127v72l524 428l-524 436v186l676 -563v-12z" />
<glyph unicode="?" horiz-adv-x="647" d="M74 995q0 172 72.5 265.5t205.5 93.5q113 0 180.5 -80t67.5 -213q0 -92 -32.5 -158.5t-121.5 -154.5q-82 -82 -108.5 -146.5t-28.5 -187.5v-23h-69q-6 74 -7 109q0 141 56 233q14 23 76 107q88 117 88 221q0 82 -40 129t-106 47q-84 0 -132 -62.5t-56 -179.5h-45zM186 86 q0 41 30 69.5t71 28.5t69.5 -28.5t28.5 -69.5t-28.5 -70.5t-69.5 -29.5t-71 29.5t-30 70.5z" />
<glyph unicode="@" horiz-adv-x="1185" d="M27 594q0 279 172 467t424 188q137 0 256.5 -60.5t195.5 -168.5q82 -115 82 -285q0 -213 -125 -373q-53 -70 -123.5 -112.5t-132.5 -42.5q-53 0 -81.5 34.5t-39.5 114.5q-49 -78 -90 -108.5t-92 -30.5q-92 0 -151.5 80t-59.5 205q0 176 102.5 310t237.5 134 q111 0 135 -143l27 127h113l-117 -539q-8 -33 -8 -65q0 -29 14 -49.5t35 -20.5q41 0 95 43t91 107q96 160 96 335q0 180 -134 305t-324 125q-223 0 -371 -162.5t-148 -410.5q0 -250 150 -419t371 -169q258 0 411 271h82q-41 -84 -78.5 -133.5t-99.5 -98.5 q-143 -111 -311 -110q-254 0 -429 189.5t-175 465.5zM387 444q0 -78 31 -130t78 -52q66 0 112 86q41 82 70 193.5t29 197.5q0 162 -93 162q-82 0 -154.5 -146.5t-72.5 -310.5z" />
<glyph unicode="A" horiz-adv-x="1073" d="M27 -6v49q76 6 100.5 29.5t52.5 113.5l377 1223l340 -1245q23 -72 48.5 -92.5t101.5 -28.5v-49q-115 16 -199 16q-86 0 -201 -16v49q98 10 98 61q0 23 -10 70l-55 221h-373l-57 -192q-18 -61 -19 -99q0 -29 24 -43t83 -18v-49q-88 10 -155.5 10t-155.5 -10zM326 459h338 l-156 608z" />
<glyph unicode="B" horiz-adv-x="958" d="M63 0v49q84 10 107 32.5t23 102.5v996q0 82 -23 104.5t-107 30.5v51h424q176 0 252 -92q82 -98 82 -240q0 -219 -192 -305q117 -27 180 -116t63 -222q0 -113 -48 -206t-130 -140q-80 -45 -223 -45h-408zM344 168q0 -66 18.5 -85.5t79.5 -19.5h37q113 0 173.5 84t60.5 240 q0 174 -78 248q-51 47 -162 47h-129v-514zM344 745h86q76 0 119 20.5t72 70.5q41 70 41 192q0 172 -68 234q-45 41 -137 41h-113v-558z" />
<glyph unicode="C" horiz-adv-x="1003" d="M94 680q0 324 121 517.5t324 193.5q156 0 252 -119l55 114h33v-401h-41q-35 174 -102.5 257t-178.5 83q-145 0 -223 -165t-78 -476q0 -295 79 -456.5t222 -161.5q121 0 193.5 104t80.5 291h60q-8 -229 -103.5 -358.5t-257.5 -129.5q-197 0 -316.5 194t-119.5 513z" />
<glyph unicode="D" horiz-adv-x="1060" d="M55 0v49q84 10 106.5 32.5t22.5 104.5v994q0 82 -22.5 104.5t-106.5 30.5v51h398q147 0 245.5 -55.5t167.5 -175.5q109 -199 109 -451q0 -172 -53.5 -326.5t-141.5 -238.5q-125 -119 -327 -119h-398zM338 166q0 -68 18.5 -87.5t81.5 -19.5q199 0 283 154q94 168 94 473 q0 297 -94 465q-84 152 -275 152h-108v-1137z" />
<glyph unicode="E" horiz-adv-x="911" d="M63 0v51q84 8 107 30.5t23 104.5v994q0 80 -23 103.5t-107 31.5v51h713l29 -307h-39q-31 147 -69 195.5t-122 48.5h-229v-562h227q53 0 72 32t23 136h41v-401h-41q-4 102 -24.5 136t-78.5 34h-219v-494q0 -72 21.5 -96.5t85.5 -24.5h112q100 0 137 52q49 68 82 215h39 l-39 -330h-721z" />
<glyph unicode="F" horiz-adv-x="872" d="M70 -6v49q86 8 107.5 31.5t21.5 105.5v1000q0 80 -22.5 103.5t-106.5 31.5v51h712l29 -307h-39q-31 145 -69.5 194.5t-122.5 49.5h-228v-562h226q49 0 65 23q25 37 31 145h41v-401h-41q-4 102 -25.5 136t-81.5 34h-215v-498q0 -82 21.5 -105.5t105.5 -31.5v-49 q-125 16 -202.5 16t-206.5 -16z" />
<glyph unicode="G" horiz-adv-x="1054" d="M88 686q0 322 122 513.5t327 191.5q152 0 254 -117l59 117h33v-406h-41q-39 178 -107.5 260t-179.5 82q-305 0 -305 -653q0 -311 76.5 -474t224.5 -163q100 0 207 69v355q0 57 -21.5 75.5t-99.5 26.5v49q98 -12 186 -12q86 0 185 12v-49q-74 -10 -91.5 -26.5t-17.5 -79.5 v-338q-109 -78 -188.5 -110t-165.5 -32q-211 0 -334 190.5t-123 518.5z" />
<glyph unicode="H" horiz-adv-x="1130" d="M63 -6v49q86 8 108 31.5t22 105.5v1006q0 82 -21.5 105.5t-108.5 31.5v49q135 -14 203 -14q70 0 205 14v-49q-84 -8 -105.5 -31.5t-21.5 -105.5v-443h444v443q0 82 -21.5 105.5t-104.5 31.5v49q135 -14 204 -14q68 0 203 14v-49q-86 -8 -107.5 -31.5t-21.5 -105.5v-1006 q0 -82 21.5 -105.5t107.5 -31.5v-49q-129 16 -202.5 16t-204.5 -16v49q84 8 105 31.5t21 105.5v500h-444v-500q0 -82 21.5 -105.5t105.5 -31.5v-49q-131 16 -205 16t-203 -16z" />
<glyph unicode="I" horiz-adv-x="534" d="M63 -6v49q86 8 108 31.5t22 105.5v1006q0 82 -23 104.5t-107 32.5v49q137 -14 207 -14q68 0 203 14v-49q-84 -10 -105.5 -32.5t-21.5 -104.5v-1006q0 -82 21.5 -105.5t105.5 -31.5v-49q-131 16 -203 16q-74 0 -207 -16z" />
<glyph unicode="J" horiz-adv-x="530" d="M0 -80q16 -2 33 -2q90 0 123.5 55.5t33.5 200.5v1012q0 82 -21.5 105.5t-105.5 31.5v49q135 -14 205 -14q68 0 203 14v-49q-84 -10 -105.5 -32.5t-21.5 -104.5v-940q0 -176 -47 -260q-72 -129 -240 -129q-31 0 -57 2v61z" />
<glyph unicode="K" horiz-adv-x="1064" d="M63 -6v49q84 10 107 32.5t23 104.5v1006q0 82 -23 105.5t-107 31.5v49q137 -14 207 -14t197 14v-49q-84 -10 -105.5 -32.5t-21.5 -104.5v-473l367 514q20 31 20 53q0 35 -74 41q-14 0 -26 2v49q92 -10 167.5 -10t168.5 10v-49q-72 -4 -109 -25.5t-84 -83.5l-276 -387 l360 -651q45 -78 79 -103.5t101 -29.5v-49q-123 16 -213 16t-213 -16v49q25 4 27 4q86 8 86 49q0 20 -29 74l-286 539l-66 -93v-436q0 -82 20.5 -105.5t102.5 -31.5v-49q-113 16 -193 16q-82 0 -207 -16z" />
<glyph unicode="L" horiz-adv-x="847" d="M63 0v51q84 8 107 31.5t23 103.5v1000q0 82 -23 104.5t-107 32.5v49q137 -14 207 -14q68 0 203 14v-49q-84 -10 -105.5 -32.5t-21.5 -104.5v-996q0 -72 21.5 -96t81.5 -24h114q102 0 139 51q53 74 82 209h39l-37 -330h-723z" />
<glyph unicode="M" horiz-adv-x="1366" d="M61 -6v51h19q74 8 93.5 30.5t23.5 104.5l34 1006v12q0 72 -25.5 94.5t-109.5 28.5v51q82 -8 137 -8q82 0 160 10l301 -1020l301 1020q90 -10 160 -10q49 0 131 8v-49q-88 -8 -111.5 -32.5t-23.5 -104.5l16 -1006q4 -82 25.5 -104.5t110.5 -30.5v-51q-131 16 -207 16 t-207 -16v51q86 4 110.5 28.5t24.5 102.5v4l-16 1037l-265 -891l-81 -289h-25l-84 297l-260 885l-35 -1039v-18q0 -66 24.5 -87.5t110.5 -29.5v-51q-100 10 -164 10t-168 -10z" />
<glyph unicode="N" horiz-adv-x="1122" d="M61 1323v49q86 -6 140 -6q47 0 121 6l548 -1024v838q0 82 -22.5 104.5t-108.5 32.5v49q109 -10 166 -10q59 0 160 10v-49q-88 -10 -110.5 -32.5t-22.5 -104.5v-1227h-27q-18 37 -55 107q-6 14 -115 219l-479 897v-1002q0 -82 22.5 -105.5t110.5 -31.5v-49 q-113 10 -166 10q-57 0 -160 -10v49q88 8 111 31.5t23 105.5v1082q-38 53 -136 61z" />
<glyph unicode="O" horiz-adv-x="1056" d="M88 680q0 326 119 519.5t319 193.5q205 0 323 -194.5t118 -534.5q0 -184 -54.5 -349t-140.5 -243q-104 -96 -242 -97q-164 0 -278 131q-74 82 -119 240t-45 334zM250 692q0 -313 73.5 -486t206.5 -173q129 0 201 171t72 476q0 313 -72 484t-203 171t-204.5 -170 t-73.5 -473z" />
<glyph unicode="P" horiz-adv-x="913" d="M63 -6v49q86 8 108 31.5t22 105.5v1000q0 82 -23 104.5t-107 30.5v51h420q199 0 283 -102q92 -109 92 -273q0 -174 -95 -274.5t-261 -100.5h-156v-436q0 -82 21.5 -105.5t105.5 -31.5v-49q-131 16 -203 16q-74 0 -207 -16zM346 680h107q143 0 204 104q47 84 48 213 q0 178 -82 256q-49 49 -160 50h-117v-623z" />
<glyph unicode="Q" horiz-adv-x="1052" d="M88 682q0 326 119 518.5t319.5 192.5t319.5 -193.5t119 -519.5q0 -248 -86 -449q98 -200 185 -200h1v-54h-47q-70 0 -116 25t-109 94q-109 -121 -263 -121q-166 0 -278 129q-74 82 -119 242t-45 336zM250 694q0 -309 73.5 -485t204.5 -176q111 0 181 121q94 168 94 522 q0 315 -72 487t-203 172t-204.5 -170t-73.5 -471z" />
<glyph unicode="R" horiz-adv-x="997" d="M63 -6v49q86 8 108 31.5t22 105.5v1000q0 82 -23 104.5t-107 30.5v51h429q186 0 272 -104q88 -100 88 -254q0 -276 -274 -346q59 -18 89.5 -55.5t61.5 -123.5l109 -321q27 -74 50 -94.5t83 -24.5v-49q-74 6 -115 6q-39 0 -113 -6q-10 27 -45 125l-120 366q-31 96 -68 130 t-109 34h-57v-469q0 -80 22.5 -104.5t104.5 -32.5v-49q-125 16 -201 16t-207 -16zM346 713h117q113 0 168 67q68 78 67 234q0 289 -227 289h-125v-590z" />
<glyph unicode="S" horiz-adv-x="870" d="M106 -31v445h41q47 -369 285 -369q98 0 160.5 74t62.5 192q0 100 -47 166t-178 144q-184 109 -245.5 190.5t-61.5 216.5q0 160 87 258t228 98q129 0 213 -104l47 113h31v-377h-41q-29 160 -86 233.5t-151 73.5q-88 0 -145.5 -68.5t-57.5 -173.5q0 -92 47 -148t207 -155 q166 -102 223 -187t57 -226q0 -170 -92 -276.5t-237 -106.5q-147 0 -258 116l-58 -129h-31z" />
<glyph unicode="T" horiz-adv-x="886" d="M41 1053l45 313h717l45 -313h-41q-35 154 -72 202t-121 48h-94v-1123q0 -82 21.5 -105.5t105.5 -31.5v-49q-125 16 -202.5 16t-206.5 -16v49q86 8 107.5 31.5t21.5 105.5v1123h-84q-84 0 -124 -49.5t-77 -200.5h-41z" />
<glyph unicode="U" horiz-adv-x="1110" d="M53 1323v49q137 -14 207 -14q68 0 203 14v-49q-84 -10 -105.5 -32.5t-21.5 -104.5v-793q0 -152 33 -211q62 -114 216 -114h3q129 0 205 82q69 75 69 251v5v780q0 82 -22.5 104.5t-108.5 32.5v49q109 -10 166 -10q61 0 158 10v-49q-86 -10 -108.5 -32.5t-22.5 -104.5v-768 q0 -174 -58 -273q-94 -168 -309 -168q-223 0 -321 177q-53 92 -54 256v776q0 82 -22.5 104.5t-106.5 32.5z" />
<glyph unicode="V" horiz-adv-x="1071" d="M27 1323v49q115 -14 198.5 -14t198.5 14v-49q-102 -12 -102 -59q0 -8 12 -70l244 -920l249 895q18 63 18.5 92t-24 43.5t-84.5 18.5v49q80 -10 150 -10q72 0 157 10v-49q-66 -6 -95 -30.5t-50 -90.5l-348 -1227h-39l-338 1221q-23 76 -47 97.5t-100 29.5z" />
<glyph unicode="W" horiz-adv-x="1458" d="M41 1323v49q109 -14 195 -14q84 0 192 14v-49q-61 -8 -85 -21.5t-24 -39.5q0 -12 9 -62l178 -840l250 1037h37l245 -1039l183 836q10 47 10 72q0 27 -22.5 40t-80.5 17v49q76 -10 145.5 -10t147.5 10v-49q-66 -4 -91 -25.5t-42 -83.5l-278 -1237h-33l-252 1072 l-252 -1074h-33l-266 1227q-16 68 -43 92.5t-90 28.5z" />
<glyph unicode="X" horiz-adv-x="1038" d="M29 -6v49q66 4 103.5 33.5t86.5 122.5l240 477l-226 522q-27 72 -56.5 94.5t-100.5 30.5v49q115 -14 205 -14t204 14v-49q-63 -8 -87.5 -20.5t-22.5 -34.5q0 -23 18 -64l154 -356l174 346q27 53 27 80q0 41 -103 49v49q76 -10 160 -10t160 10v-49q-72 -8 -103 -28.5 t-61 -77.5l-223 -443l256 -598q39 -84 65.5 -105.5t101.5 -27.5v-49q-129 14 -210.5 14t-210.5 -14v49q25 4 28 4q84 10 84 51q0 33 -28 101l-175 403l-208 -420q-33 -61 -33 -90q0 -41 104 -49v-49q-86 10 -161.5 10t-161.5 -10z" />
<glyph unicode="Y" horiz-adv-x="989" d="M33 1323v49q117 -14 205 -14q84 0 204 14v-49q-63 -6 -87.5 -17.5t-24.5 -35.5q0 -23 14 -66l207 -524l201 526q16 43 16 64q0 25 -23.5 36t-87.5 17v49q88 -10 154 -10q68 0 152 10v-49q-70 -10 -96.5 -30.5t-51.5 -80.5l-240 -616v-416q0 -82 21.5 -105.5t105.5 -31.5 v-49q-131 16 -204 16q-72 0 -205 -16v49q86 8 107.5 31.5t21.5 105.5v416l-240 614q-27 63 -54 84t-95 29z" />
<glyph unicode="Z" horiz-adv-x="901" d="M61 0l586 1303h-266q-92 0 -136 -50.5t-75 -189.5h-43l43 303h668l-586 -1303h301q111 0 147 48q53 68 99 221h41l-47 -332h-732z" />
<glyph unicode="[" horiz-adv-x="526" d="M186 -397v1763h285v-61h-156v-1641h156v-61h-285z" />
<glyph unicode="\" horiz-adv-x="681" d="M27 1366h90l694 -1763h-90z" />
<glyph unicode="]" horiz-adv-x="526" d="M55 -336h156v1641h-156v61h285v-1763h-285v61z" />
<glyph unicode="^" horiz-adv-x="839" d="M-29 588l451 846h10l436 -846h-55l-342 655l-350 -655h-150z" />
<glyph unicode="_" horiz-adv-x="839" d="M51 -180h740v-78h-740v78z" />
<glyph unicode="`" horiz-adv-x="839" d="M178 1430h182l160 -302h-74z" />
<glyph unicode="a" horiz-adv-x="784" d="M76 244q0 158 123 243q121 88 295 115v146q0 182 -123 182q-57 0 -91 -31t-34 -82v-24q2 -12 2 -35q0 -86 -72 -86q-59 0 -59 69q0 100 79.5 172t188.5 72q150 0 217 -123q35 -63 35 -205v-428q0 -100 13.5 -141t47.5 -41q10 0 41 6v-53q-57 -14 -96 -14q-115 0 -129 168 q-41 -92 -89 -132t-124 -40q-100 0 -162.5 72.5t-62.5 189.5zM223 256q0 -88 33 -137t92 -49q76 0 111 72.5t35 230.5v176q-143 -33 -207 -102.5t-64 -190.5z" />
<glyph unicode="b" horiz-adv-x="849" d="M29 1298v37q133 14 252 54v-555q72 151 192 151h2q131 0 215 -140t84 -361.5t-86 -361.5t-221 -140q-76 0 -126 42t-83 134l-76 -181h-45v1201q0 80 -18 99t-90 21zM279 492q0 -254 49 -357q47 -96 125 -96q170 0 170 446q0 442 -166 443q-84 0 -131 -113.5t-47 -322.5z " />
<glyph unicode="c" horiz-adv-x="735" d="M78 477q0 229 90 371.5t233 142.5q102 0 168 -86l41 105h31v-338h-39q-41 264 -180 264q-90 0 -139.5 -121t-49.5 -344q0 -426 185 -426q145 0 174 270h65q-14 -164 -81.5 -251t-176.5 -87q-145 0 -233 137.5t-88 362.5z" />
<glyph unicode="d" horiz-adv-x="860" d="M76 477q0 221 82 361.5t213 140.5q66 0 108.5 -34t79.5 -114v347q0 80 -18.5 99t-91.5 21v37q133 14 253 54v-1182q0 -88 18.5 -111.5t84.5 -27.5h16v-35q-154 -25 -225 -53q-16 84 -23 159q-66 -164 -198 -164q-131 0 -215 140.5t-84 361.5zM227 481q0 -448 165 -448h1 q80 0 124 107.5t44 301.5q0 479 -174 480q-160 -1 -160 -441z" />
<glyph unicode="e" horiz-adv-x="772" d="M76 483q0 225 88 364.5t231 139.5q139 0 217 -125t84 -356h-473q6 -231 45 -336q49 -123 158 -123q84 0 138 69.5t69 198.5h63q-16 -160 -91 -247.5t-197 -87.5q-152 0 -242 136t-90 367zM227 580h326q-12 354 -160 354q-141 0 -166 -354z" />
<glyph unicode="f" horiz-adv-x="505" d="M55 -6v41q72 4 91.5 24.5t19.5 85.5v746h-107v63q76 2 95.5 23.5t21.5 105.5q4 119 29 181q55 131 198 131q74 0 119 -42t45 -110q0 -78 -65 -78q-63 0 -64 60q0 10 6 37q2 8 2 24q0 57 -45 57q-41 0 -67 -43q-25 -43 -25 -172v-161h183v-76h-183v-746q0 -66 20.5 -86 t92.5 -24v-41q-102 12 -184.5 12t-182.5 -12z" />
<glyph unicode="g" horiz-adv-x="827" d="M59 -123q0 152 158 219q-82 45 -82 119q0 113 172 168q-90 33 -139 108.5t-49 182.5q0 145 76.5 228t214.5 83q94 0 168 -53h217v-82l-156 6q39 -78 39 -172q0 -158 -94 -242q-51 -43 -158 -80l-47 -16q-82 -27 -109.5 -47t-27.5 -49q0 -35 31.5 -50.5t111.5 -17.5 q127 -4 223 -39q150 -61 150 -237q0 -139 -98.5 -225.5t-258.5 -86.5q-154 0 -248 78t-94 205zM131 -139q0 -88 75 -145.5t189 -57.5q117 0 185.5 53t68.5 144q0 88 -68.5 134t-197.5 46q-121 0 -186.5 -46t-65.5 -128zM254 688q0 -127 37 -196.5t106.5 -69.5t106.5 68.5 t37 195.5q0 119 -37 183.5t-103 64.5q-70 0 -108.5 -65.5t-38.5 -180.5z" />
<glyph unicode="h" horiz-adv-x="905" d="M45 -6v41q70 4 90.5 24.5t20.5 85.5v1033q0 80 -18.5 99t-90.5 21v37q127 14 252 54v-541q80 137 211 137q129 0 197 -117q41 -78 41 -221v-502q0 -66 19 -86t91 -24v-41q-98 12 -178 12q-82 0 -178 -12v41q61 4 81.5 24.5t20.5 81.5v514q0 125 -32.5 181.5t-106.5 56.5 q-90 0 -135 -82q-31 -59 -31 -164v-506q0 -59 20.5 -81.5t79.5 -24.5v-41q-96 12 -176 12t-178 -12z" />
<glyph unicode="i" horiz-adv-x="477" d="M59 -6v41q72 4 91.5 24.5t19.5 85.5v648q0 80 -17.5 99t-91.5 21v35q133 14 252 53v-856q0 -66 20.5 -86t92.5 -24v-41q-109 12 -185 12t-182 -12zM137 1253q0 41 30 70t71 29t69.5 -29t28.5 -70t-28.5 -70.5t-69.5 -29.5t-71 29.5t-30 70.5z" />
<glyph unicode="j" horiz-adv-x="473" d="M-23 -362q102 23 146.5 92t44.5 213v850q0 78 -18.5 98t-92.5 22v35q135 14 254 53v-974q0 -252 -106 -357q-92 -84 -228 -86v54zM135 1259.5q0 40.5 30 69.5t71 29q39 0 68.5 -30t29.5 -68q0 -41 -29 -71t-69.5 -30t-70.5 30t-30 70.5z" />
<glyph unicode="k" horiz-adv-x="894" d="M45 -6v41q70 4 90.5 24.5t20.5 85.5v1033q0 80 -18.5 99t-90.5 21v37q127 14 252 54v-914l254 350q29 41 29 58q0 43 -90 49v41q82 -10 155.5 -10t163.5 10v-41q-63 -6 -93 -23.5t-71 -72.5l-158 -211l232 -480q35 -68 61.5 -88t85.5 -22v-41q-72 8 -114 8q-45 0 -113 -8 l-238 520l-106 -139v-230q0 -63 20.5 -84.5t90.5 -25.5v-41q-100 12 -183 12q-78 0 -180 -12z" />
<glyph unicode="l" horiz-adv-x="466" d="M55 -6v41q72 4 91.5 24.5t19.5 85.5v1035q0 78 -18.5 98t-90.5 20v37q131 14 252 54v-1244q0 -66 20.5 -86t92.5 -24v-41q-109 12 -185 12t-182 -12z" />
<glyph unicode="m" horiz-adv-x="1325" d="M57 -6v41q70 4 90.5 24.5t20.5 85.5v633q0 88 -13.5 106.5t-74.5 20.5h-21v37q137 23 220 62q12 -76 18 -175q45 84 96 120t125 36q141 0 197 -160q45 84 98 122t129 38q117 0 171 -74.5t54 -236.5v-529q0 -66 20.5 -86t92.5 -24v-41q-98 12 -180 12t-178 -12v41 q61 4 81.5 24.5t20.5 81.5v539q0 115 -29.5 163t-99.5 48q-76 0 -116 -59.5t-40 -169.5v-521q0 -61 20.5 -81.5t82.5 -24.5v-41q-96 12 -174 12q-76 0 -172 -12v41q59 4 79.5 24.5t20.5 81.5v535q0 115 -28.5 165t-96.5 50q-86 0 -127 -76q-33 -59 -33 -176v-498 q0 -61 20.5 -81.5t82.5 -24.5v-41q-96 12 -178 12q-81 0 -179 -12z" />
<glyph unicode="n" horiz-adv-x="917" d="M59 -6v41q72 4 91.5 24.5t19.5 85.5v633q0 84 -14.5 104.5t-73.5 22.5h-21v37q131 20 220 62q12 -66 18 -179q82 160 223 160q133 0 199 -117q41 -78 41 -221v-502q0 -66 20.5 -86t89.5 -24v-41q-98 12 -178 12q-82 0 -178 -12v41q61 4 81.5 24.5t20.5 81.5v514 q0 125 -32.5 181.5t-106.5 56.5q-92 0 -135 -82q-31 -59 -31 -164v-506q0 -59 20.5 -81.5t80.5 -24.5v-41q-96 12 -176.5 12t-178.5 -12z" />
<glyph unicode="o" horiz-adv-x="788" d="M76 483.5q0 223.5 91 365.5t236 142q111 0 191 -90q53 -63 87 -178t34 -238q0 -223 -90 -365.5t-230 -142.5q-141 0 -230 141.5t-89 365zM227 479q0 -449 168 -449t168 449q0 459 -166 459q-170 0 -170 -459z" />
<glyph unicode="p" horiz-adv-x="870" d="M45 -369q70 4 90.5 24.5t20.5 86.5v1051q0 90 -29 108q-14 12 -82 14v37q125 10 217 37q14 -59 23 -172q74 168 204 168q133 0 219.5 -141.5t86.5 -360.5q0 -223 -84 -362t-217 -139q-66 0 -110 32.5t-85 110.5v-383q0 -66 20.5 -86.5t90.5 -24.5v-41q-106 12 -186 12 q-3 1 -6 1q-79 0 -173 -13v41zM297 494q0 -455 178 -455q168 0 168 438q0 451 -170 451q-84 0 -130 -112.5t-46 -321.5z" />
<glyph unicode="q" horiz-adv-x="870" d="M76 483q0 219 86 360.5t219 141.5t205 -168q8 113 22 172q94 -27 217 -37v-37h-22q-53 -4 -70.5 -27.5t-17.5 -94.5v-1051q0 -66 19.5 -86.5t88.5 -24.5v-41q-96 12 -176 12q-3 1 -6 1q-78 0 -180 -13v41q72 4 91 24.5t19 86.5v383q-41 -78 -85 -110.5t-109 -32.5 q-133 0 -217 139t-84 362zM227 479q0 -440 168 -440q178 0 178 453q0 436 -176 436q-170 0 -170 -449z" />
<glyph unicode="r" horiz-adv-x="641" d="M57 -6v41q70 4 90.5 24.5t20.5 85.5v641q0 80 -10 101q-16 29 -70 29q-7 0 -14 -1q-8 0 -15 -2v37q152 23 217 49q12 -78 19 -194q49 186 190 186q61 0 100.5 -44t39.5 -116q0 -47 -20.5 -75.5t-57.5 -28.5q-31 0 -50.5 19.5t-19.5 48.5q0 12 8 43q2 8 2 22 q0 18 -12 31.5t-31 13.5q-61 0 -97 -88t-36 -244v-428q0 -66 22.5 -87t90.5 -23v-41q-102 12 -184 12q-81 0 -183 -12z" />
<glyph unicode="s" horiz-adv-x="718" d="M98 -25v342h39q41 -274 207 -274q70 0 117 51t47 127q0 61 -34 103.5t-116 85.5q-145 76 -197 139t-52 162q0 123 69.5 198.5t181.5 75.5q92 0 162 -63l27 82h31v-318h-39q-20 242 -168 242q-63 0 -105.5 -46t-42.5 -118q0 -57 34 -99t116 -85q150 -76 202 -137.5 t52 -163.5q0 -131 -75 -214t-194 -83q-109 0 -194 84l-37 -91h-31z" />
<glyph unicode="t" horiz-adv-x="528" d="M57 891v63q154 2 199 306h45v-293h184v-76h-184v-602q0 -145 23 -189q23 -39 71 -39q41 0 105 41v-61q-86 -59 -158 -59q-102 0 -146 68.5t-44 228.5v28l6 584h-101z" />
<glyph unicode="u" horiz-adv-x="901" d="M37 913v35q127 14 252 53v-692q0 -125 33.5 -179t109.5 -54q164 0 164 260v457q0 76 -19 100q-17 21 -63 21q-8 0 -16 -1h-13v35q127 14 254 53v-819q0 -74 15.5 -92t76.5 -20h21v-37q-135 -16 -227 -53q-12 86 -13 153v27q-39 -92 -92 -134t-133 -42q-137 0 -201 112 q-41 76 -41 215v482q0 76 -18 100q-16 21 -62 21q-8 0 -16 -1h-12z" />
<glyph unicode="v" horiz-adv-x="815" d="M8 932v41q119 -12 182 -12q51 0 172 12v-41q-88 0 -88 -45q0 -14 11 -49l164 -598l174 591q12 41 12 62q0 39 -82 39v41q74 -8 127 -8q51 0 125 8v-41q-59 -4 -81 -22.5t-40 -78.5l-256 -856h-43l-254 865q-18 55 -39 71.5t-84 20.5z" />
<glyph unicode="w" horiz-adv-x="1179" d="M25 932v41q90 -10 172 -10q80 0 170 10v-41q-45 0 -71 -12.5t-24 -32.5q0 -6 11 -51l133 -564l194 721h49l191 -725l137 566q8 27 8 53q0 45 -88 45v41q82 -8 135.5 -8t120.5 8v-41q-53 -2 -77.5 -23.5t-41.5 -74.5l-210 -859h-48l-194 742l-197 -742h-47l-209 852 q-18 66 -36.5 83.5t-77.5 21.5z" />
<glyph unicode="x" horiz-adv-x="856" d="M35 -6v41q55 4 81.5 24.5t69.5 94.5l181 321l-172 371q-25 49 -50.5 66.5t-78.5 19.5v41q102 -10 173.5 -10t170.5 10v-41q-76 -6 -76 -37q0 -16 16 -53l101 -219l120 213q20 41 21 57q2 18 -17.5 27.5t-64.5 11.5v41q84 -8 133 -8q51 0 135 8v-41q-57 -4 -82.5 -20.5 t-56.5 -67.5l-160 -281l195 -422q33 -68 58.5 -86t86.5 -20v-41q-100 12 -182 12t-178 -12v41q84 6 84 41q0 18 -17 55l-131 283l-149 -264q-27 -49 -27 -74q0 -35 86 -41v-41q-96 8 -135 8q-22 0 -135 -8z" />
<glyph unicode="y" horiz-adv-x="837" d="M27 932v41q92 -10 174 -10q80 0 172 10v-41q-86 -8 -86 -41q0 -18 12 -57l162 -580l172 571q14 47 14 64q2 23 -20.5 32t-73.5 11v41q66 -8 125 -8t143 8v-41q-55 -8 -82.5 -29.5t-42.5 -71.5l-309 -1001q-37 -123 -93 -177t-144 -54q-12 0 -23 2v102h16q74 0 120 41 t77 135l51 154l-239 803q-18 57 -41 74.5t-84 21.5z" />
<glyph unicode="z" horiz-adv-x="753" d="M66 0l438 913h-174q-78 0 -119 -46t-72 -167h-37l37 267h545l-440 -914h186q84 0 119 41q49 68 86 201h37l-43 -295h-563z" />
<glyph unicode="{" horiz-adv-x="526" d="M106 508q57 27 77 61.5t20 108.5v491q0 127 44 178.5t156 51.5h29q-102 -33 -102 -182v-500q0 -88 -22.5 -130t-88.5 -79q66 -39 88.5 -81t22.5 -128v-549q0 -147 102 -182h-29q-111 0 -155.5 52t-44.5 179v539q0 72 -21 107.5t-76 62.5z" />
<glyph unicode="|" horiz-adv-x="839" d="M381 -342v1708h78v-1708h-78z" />
<glyph unicode="}" horiz-adv-x="526" d="M94 -432q104 35 105 182v549q0 86 21.5 128t86.5 81q-66 39 -87 80t-21 129v500q0 147 -105 182h31q111 0 155 -51.5t44 -178.5v-491q0 -74 20.5 -110t77.5 -60q-57 -25 -77.5 -60.5t-20.5 -109.5v-539q0 -127 -45.5 -179t-153.5 -52h-31z" />
<glyph unicode="~" horiz-adv-x="1112" d="M209 532q96 195 221 195q59 0 156 -45q88 -37 137 -37q86 0 160 115l20 -19q-39 -82 -101.5 -136t-119.5 -54q-41 0 -107 29q-137 57 -192 57q-43 0 -72.5 -23.5t-79.5 -97.5z" />
<glyph unicode="&#xa1;" horiz-adv-x="434" d="M115 862q0 41 29.5 70t70.5 29q39 0 68.5 -30t29.5 -69q0 -41 -28.5 -70.5t-69.5 -29.5t-70.5 29.5t-29.5 70.5zM147 -373l29 930h82l31 -930h-142z" />
<glyph unicode="&#xa2;" horiz-adv-x="880" d="M147 680q0 272 129 418q74 80 181 88v153h55v-155q74 -14 125 -82l39 102h31v-336h-39q-33 236 -156 260v-878q59 12 98 81.5t49 182.5h64q-10 -137 -66.5 -225t-144.5 -105v-159h-55v153q-141 12 -225.5 148.5t-84.5 353.5zM301 672q0 -389 156 -422v876 q-156 -44 -156 -454z" />
<glyph unicode="&#xa3;" horiz-adv-x="878" d="M98 0q59 86 88 346l29 318h-117v75h125l17 168q23 233 106.5 357.5t218.5 124.5q186 0 203 -256h-63q-8 96 -39 140t-88 44q-74 0 -121 -72q-47 -78 -72 -293l-20 -213h196v-75h-205l-22 -234q-23 -217 -131 -362q98 61 172 61q35 0 108 -20q55 -16 99 -17q111 0 139 205 h59q-18 -170 -73.5 -233.5t-184.5 -63.5h-424z" />
<glyph unicode="&#xa4;" horiz-adv-x="1132" d="M98 956l78 78l154 -153q111 82 235.5 82t235.5 -82l155 153l78 -78l-153 -153q80 -111 80 -234t-80 -231l155 -154l-78 -78l-155 154q-109 -80 -234 -80q-123 0 -235 80l-154 -154l-78 78l152 154q-80 109 -80 233q0 121 80 232zM297 569q0 -113 79 -191.5t191.5 -78.5 t191.5 79t79 191.5t-79 193.5t-188 81q-115 0 -194.5 -80t-79.5 -195z" />
<glyph unicode="&#xa5;" d="M43 1323v49q121 -14 186 -14q70 0 187 14v-49q-100 -12 -101 -53q0 -16 15 -66l155 -520l158 522q14 51 14 66q0 43 -96 51v49q82 -10 137.5 -10t139.5 10v-49q-66 -10 -92.5 -33.5t-47.5 -89.5l-90 -301h170v-76h-192l-47 -153h239v-76h-262v-414q0 -82 21.5 -104.5 t105.5 -32.5v-49q-125 16 -205 16q-76 0 -205 -16v49q84 10 106.5 32.5t22.5 104.5v414h-266v76h246l-47 153h-199v76h174l-94 309q-18 59 -47 84t-86 31z" />
<glyph unicode="&#xa6;" horiz-adv-x="839" d="M381 313h78v-655h-78v655zM381 686v680h78v-680h-78z" />
<glyph unicode="&#xa7;" horiz-adv-x="878" d="M133 592q0 94 43 151.5t139 92.5q-90 74 -121.5 129t-31.5 137q0 125 78.5 206t199.5 81q127 0 204 -86t77 -228v-14h-57q-6 115 -60.5 178.5t-144.5 63.5q-80 0 -130 -49.5t-50 -127.5q0 -59 28.5 -102t100.5 -94l194 -139q141 -100 141 -252q0 -174 -161 -267 q80 -66 111.5 -124t31.5 -142q0 -137 -83 -222t-216 -85q-131 0 -211 87t-80 228v15h60q18 -246 208 -246q84 0 137.5 56.5t53.5 144.5q0 121 -105 194l-225 166q-131 98 -131 248zM231 629q0 -100 97 -170l202 -152q119 70 119 185q0 104 -104 178l-170 123 q-76 -23 -110 -60.5t-34 -103.5z" />
<glyph unicode="&#xa8;" horiz-adv-x="845" d="M186 1272q0 39 28 65.5t66.5 26.5t65.5 -27.5t27 -64.5q0 -39 -27 -66.5t-65.5 -27.5t-66.5 27.5t-28 66.5zM481 1272q0 39 28 65.5t66.5 26.5t65.5 -27.5t27 -64.5q0 -39 -27 -66.5t-65.5 -27.5t-66.5 27.5t-28 66.5z" />
<glyph unicode="&#xa9;" horiz-adv-x="1327" d="M29 676q0 262 186 448.5t448.5 186.5t448.5 -185.5t186 -447.5q0 -268 -186 -452.5t-457 -184.5q-256 0 -441 187.5t-185 447.5zM92 676q0 -233 167 -402.5t398 -169.5q242 0 410 166t168 408q0 236 -168 402.5t-403 166.5q-238 0 -405 -166.5t-167 -404.5zM375 682 q0 195 76.5 310.5t205.5 115.5q94 0 156 -70l35 68h26v-252h-32q-39 201 -170 201q-68 0 -111 -51q-74 -88 -74 -308q0 -371 183 -370q154 0 166 233h47q-4 -143 -64.5 -222t-165.5 -79q-125 0 -201.5 117t-76.5 307z" />
<glyph unicode="&#xaa;" horiz-adv-x="591" d="M70 575v78h471v-78h-471zM90 930q0 180 270 227v68q0 121 -79.5 121t-79.5 -70q0 -4 2 -16v-17q0 -57 -49 -57q-39 0 -39 49q0 66 51 112t123 46q98 0 141 -80q25 -43 25 -135v-256q0 -106 34 -107q6 0 31 6v-47q-37 -10 -63 -10q-66 0 -82 94q-47 -96 -135 -96 q-66 0 -108 47t-42 121zM184 938q0 -51 21.5 -80t58.5 -29q96 0 96 179v102q-92 -20 -134 -61t-42 -111z" />
<glyph unicode="&#xab;" horiz-adv-x="673" d="M98 489l199 478h47l-135 -478l135 -489h-47zM322 489l196 478h49l-135 -478l135 -489h-49z" />
<glyph unicode="&#xac;" horiz-adv-x="839" d="M70 471v76h700v-547h-154v471h-546z" />
<glyph unicode="&#xad;" horiz-adv-x="440" d="M10 502v92h420v-92h-420z" />
<glyph unicode="&#xae;" horiz-adv-x="1327" d="M29 676q0 262 186 448.5t448.5 186.5t448.5 -185.5t186 -447.5q0 -268 -186 -452.5t-457 -184.5q-256 0 -441 187.5t-185 447.5zM92 676q0 -233 167 -402.5t398 -169.5q242 0 410 166t168 408q0 236 -168 402.5t-403 166.5q-238 0 -405 -166.5t-167 -404.5zM375 268v43 l16 2q43 4 55.5 16.5t12.5 55.5v590q0 45 -13.5 57t-70.5 17v43h276q104 0 163.5 -58.5t59.5 -161.5q0 -78 -39.5 -131t-111.5 -73q41 -23 72 -101l69 -190q16 -43 29.5 -53.5t54.5 -12.5v-43q-37 4 -73.5 4t-71.5 -4q-16 39 -31 78l-78 217q-23 57 -41 74.5t-59 17.5h-29 v-270q0 -45 10.5 -56.5t61.5 -17.5v-43q-74 10 -129 11q-53 -1 -133 -11zM565 707h68q135 0 135 170q0 164 -129 163h-74v-333z" />
<glyph unicode="&#xaf;" horiz-adv-x="839" d="M170 1235v104h500v-104h-500z" />
<glyph unicode="&#xb0;" horiz-adv-x="878" d="M176 1114q0 109 78 185.5t190 76.5q104 0 181 -77.5t77 -184.5q0 -111 -76.5 -187.5t-185.5 -76.5q-111 0 -187.5 76.5t-76.5 187.5zM258 1114q0 -76 53.5 -129t128.5 -53q74 0 127.5 53t53.5 127q0 76 -53.5 129t-125.5 53q-78 0 -131 -52t-53 -128z" />
<glyph unicode="&#xb1;" d="M98 53v123h682v-123h-682zM98 631v121h291v358h111v-358h280v-121h-280v-346h-111v346h-291z" />
<glyph unicode="&#xb2;" horiz-adv-x="579" d="M84 532v78q10 10 16 23q193 260 265 438q12 27 12 76q0 53 -30 87t-77 34q-111 0 -131 -170h-43q8 129 55.5 189.5t141.5 60.5q80 0 132 -54.5t52 -136.5q0 -74 -54 -170t-245 -356h307l-12 -99h-389z" />
<glyph unicode="&#xb3;" horiz-adv-x="579" d="M76 772h45q8 -92 37.5 -133t91.5 -41q63 0 99 46t36 126q0 164 -154 164h-16v55h16q63 0 98.5 39t35.5 111q0 61 -29 97t-76 36q-100 0 -125 -150h-41q18 225 191 226q82 0 133 -54.5t51 -142.5q0 -129 -117 -182q141 -47 142 -203q0 -104 -62.5 -173t-157.5 -69 q-188 0 -198 248z" />
<glyph unicode="&#xb4;" horiz-adv-x="839" d="M365 1128l159 302h183l-269 -302h-73z" />
<glyph unicode="&#xb5;" horiz-adv-x="741" d="M6 -297q0 41 10 123q45 334 45 754v356h113v-586q0 -160 35 -221q35 -68 113 -68q59 0 106 39t100 129v707h103v-700q0 -90 13 -123t50 -33q25 0 64 33v-31l-135 -102q-4 -2 -7 -3q-35 0 -57 48.5t-24 126.5q-88 -106 -142.5 -144.5t-118.5 -38.5q-131 0 -172 183 q0 -170 15 -349q6 -53 6 -92q0 -43 -16.5 -70.5t-41 -27.5t-42 26.5t-17.5 63.5z" />
<glyph unicode="&#xb6;" d="M86 1030q0 223 133 295q76 41 225 41h369v-49q-88 -8 -111.5 -31.5t-23.5 -103.5v-1278q0 -82 23.5 -104.5t111.5 -30.5v-52q-156 16 -299 17q-145 0 -301 -17v52q84 8 105.5 30.5t21.5 104.5v766q-254 45 -254 360zM436 -70q0 -84 14.5 -110.5t59.5 -26.5t58.5 24.5 t13.5 114.5v1233q0 88 -13.5 113t-58.5 25q-47 0 -60.5 -26t-13.5 -112v-1235z" />
<glyph unicode="&#xb7;" horiz-adv-x="403" d="M102 500q0 41 30 69.5t71 28.5q39 0 68.5 -28.5t29.5 -69.5t-28.5 -71t-69.5 -30t-71 30t-30 71z" />
<glyph unicode="&#xb8;" horiz-adv-x="849" d="M295 -317q49 -18 84 -19q37 0 60.5 24.5t23.5 63.5q0 43 -28.5 64.5t-94.5 23.5l70 160h69l-49 -121q78 -8 114 -42t36 -97q0 -68 -44 -110t-116 -42q-59 0 -125 33v62z" />
<glyph unicode="&#xb9;" horiz-adv-x="579" d="M135 1194v43q135 6 172 135h41v-725q0 -47 12.5 -58t67.5 -16v-43q-84 6 -133 6.5t-129 -6.5v43q53 4 65.5 15.5t12.5 58.5v547h-109z" />
<glyph unicode="&#xba;" horiz-adv-x="591" d="M59 575v78h471v-78h-471zM88 1077q0 137 59.5 226.5t151.5 89.5t147.5 -88t55.5 -234q0 -133 -58.5 -221t-148.5 -88q-92 0 -149.5 88t-57.5 227zM197 1075q0 -268 98 -268q100 0 100 256q0 285 -98 285q-100 -1 -100 -273z" />
<glyph unicode="&#xbb;" horiz-adv-x="673" d="M106 0l136 489l-136 478h50l196 -478l-196 -489h-50zM330 0l135 489l-135 478h47l198 -478l-198 -489h-47z" />
<glyph unicode="&#xbc;" horiz-adv-x="1218" d="M135 1196v41q63 4 110.5 41t61.5 94h41v-725q0 -47 12.5 -58t65.5 -16v-43q-74 8 -131 9q-55 0 -129 -9v43q53 4 65.5 16.5t12.5 57.5v549h-109zM262 0l625 1335h69l-626 -1335h-68zM686 209l283 614h100v-524h102v-90h-102v-227h-104v227h-279zM778 299h189v420z" />
<glyph unicode="&#xbd;" horiz-adv-x="1218" d="M135 1196v41q137 10 172 135h39v-725q0 -45 12.5 -57t67.5 -17v-43q-74 8 -131 9q-55 0 -129 -9v43q53 4 65.5 16.5t12.5 57.5v549h-109zM260 0l627 1335h69l-626 -1335h-70zM721 0v78q16 20 16 22q201 276 264 437q12 31 13 73q0 53 -30 87t-77 34q-111 0 -131 -168h-43 q14 248 197 248q82 0 133 -53t51 -137q0 -74 -53 -166.5t-246 -356.5h307l-12 -98h-389z" />
<glyph unicode="&#xbe;" horiz-adv-x="1218" d="M76 770h45q6 -92 36.5 -133t92.5 -41q63 0 100 46t37 126q0 166 -154 166h-18v55h18q61 0 96.5 40t35.5 110q0 61 -29 97t-76 36q-100 0 -125 -150h-41q18 225 189 226q82 0 133 -54.5t51 -142.5q0 -123 -117 -182q143 -51 144 -205q0 -104 -62.5 -173t-157.5 -69 q-188 0 -198 248zM262 0l627 1335h67l-626 -1335h-68zM686 209l283 614h100v-524h102v-90h-102v-227h-104v227h-279zM778 299h189v420z" />
<glyph unicode="&#xbf;" horiz-adv-x="647" d="M49 -94q0 94 33 159.5t123 155.5q80 80 108.5 144.5t28.5 169.5q0 23 -2 40h70q6 -74 6 -108q0 -139 -56 -231q-14 -25 -75 -107q-88 -117 -88 -221q0 -80 39.5 -128t105.5 -48q170 0 188 241h45q0 -129 -36 -209q-74 -152 -242 -151q-113 0 -180.5 80t-67.5 213z M260 866q0 41 29.5 70t70.5 29t70 -30t29 -69q0 -41 -29 -70.5t-70 -29.5t-70.5 29.5t-29.5 70.5z" />
<glyph unicode="&#xc0;" horiz-adv-x="1073" d="M27 -6v49q76 6 100.5 29.5t52.5 113.5l377 1223l340 -1245q23 -72 48.5 -92.5t101.5 -28.5v-49q-115 16 -199 16q-86 0 -201 -16v49q98 10 98 61q0 23 -10 70l-55 221h-373l-57 -192q-18 -61 -19 -99q0 -29 24 -43t83 -18v-49q-88 10 -155.5 10t-155.5 -10zM254 1763h199 l204 -280h-82zM326 459h338l-156 608z" />
<glyph unicode="&#xc1;" horiz-adv-x="1073" d="M27 -6v49q76 6 100.5 29.5t52.5 113.5l377 1223l340 -1245q23 -72 48.5 -92.5t101.5 -28.5v-49q-115 16 -199 16q-86 0 -201 -16v49q98 10 98 61q0 23 -10 70l-55 221h-373l-57 -192q-18 -61 -19 -99q0 -29 24 -43t83 -18v-49q-88 10 -155.5 10t-155.5 -10zM326 459h338 l-156 608zM475 1483l207 280h199l-324 -280h-82z" />
<glyph unicode="&#xc2;" horiz-adv-x="1073" d="M27 -6v49q76 6 100.5 29.5t52.5 113.5l377 1223l340 -1245q23 -72 48.5 -92.5t101.5 -28.5v-49q-115 16 -199 16q-86 0 -201 -16v49q98 10 98 61q0 23 -10 70l-55 221h-373l-57 -192q-18 -61 -19 -99q0 -29 24 -43t83 -18v-49q-88 10 -155.5 10t-155.5 -10zM281 1485 l233 278h90l234 -278h-82l-197 172l-197 -172h-81zM326 459h338l-156 608z" />
<glyph unicode="&#xc3;" horiz-adv-x="1073" d="M27 -6v49q76 6 100.5 29.5t52.5 113.5l377 1223l340 -1245q23 -72 48.5 -92.5t101.5 -28.5v-49q-115 16 -199 16q-86 0 -201 -16v49q98 10 98 61q0 23 -10 70l-55 221h-373l-57 -192q-18 -61 -19 -99q0 -29 24 -43t83 -18v-49q-88 10 -155.5 10t-155.5 -10zM285 1538 q23 104 61.5 152.5t99.5 48.5q35 0 62 -14.5t92 -71.5q39 -33 74 -33q39 0 61.5 23.5t38.5 82.5l47 -12q-12 -88 -37 -127q-49 -84 -127 -84q-55 0 -139 76q-49 43 -86 43q-66 0 -98 -100zM326 459h338l-156 608z" />
<glyph unicode="&#xc4;" horiz-adv-x="1073" d="M27 -6v49q76 6 100.5 29.5t52.5 113.5l377 1223l340 -1245q23 -72 48.5 -92.5t101.5 -28.5v-49q-115 16 -199 16q-86 0 -201 -16v49q98 10 98 61q0 23 -10 70l-55 221h-373l-57 -192q-18 -61 -19 -99q0 -29 24 -43t83 -18v-49q-88 10 -155.5 10t-155.5 -10zM313 1626 q0 41 30 69.5t71 28.5t69.5 -28.5t28.5 -69.5t-28.5 -70.5t-69.5 -29.5t-71 29.5t-30 70.5zM326 459h338l-156 608zM608 1626q0 41 30 69.5t71 28.5t69.5 -28.5t28.5 -69.5t-28.5 -70.5t-69.5 -29.5t-71 29.5t-30 70.5z" />
<glyph unicode="&#xc5;" horiz-adv-x="1073" d="M27 -6v49q76 6 100.5 29.5t52.5 113.5l377 1223l340 -1245q23 -72 48.5 -92.5t101.5 -28.5v-49q-115 16 -199 16q-86 0 -201 -16v49q98 10 98 61q0 23 -10 70l-55 221h-373l-57 -192q-18 -61 -19 -99q0 -29 24 -43t83 -18v-49q-88 10 -155.5 10t-155.5 -10zM326 459h338 l-156 608zM399 1634q0 63 46.5 108.5t111.5 45.5q63 0 108.5 -46t45.5 -109.5t-46.5 -109.5t-109.5 -46q-66 0 -111 45.5t-45 111.5zM467 1632q0 -37 25.5 -62.5t62.5 -25.5t62.5 25.5t25.5 62.5q0 35 -25.5 60.5t-60.5 25.5q-39 0 -64.5 -25.5t-25.5 -60.5z" />
<glyph unicode="&#xc6;" horiz-adv-x="1488" d="M27 -6v51q74 4 105.5 30.5t76.5 117.5l539 1173h612l29 -307h-39q-33 150 -70 197t-121 47h-225v-562h223q53 0 71.5 33t22.5 135h41v-401h-41q-4 102 -24.5 136t-79.5 34h-213v-494q0 -72 21.5 -96.5t86.5 -24.5h105q98 0 142 54.5t79 212.5h39l-39 -330h-721v51 q88 8 110.5 30.5t22.5 104.5v277h-381l-139 -305q-16 -39 -16 -63.5t24.5 -36t87.5 -13.5v-51q-127 10 -163.5 10t-165.5 -10zM428 526h352v772z" />
<glyph unicode="&#xc7;" horiz-adv-x="1003" d="M94 678q0 326 121 519.5t324 193.5q156 0 252 -119l55 114h33v-401h-41q-35 174 -102.5 257t-178.5 83q-145 0 -223 -165t-78 -476q0 -297 79 -457.5t222 -160.5q121 0 193.5 104t80.5 291h60q-6 -217 -95 -345t-243 -141l-39 -94q156 -14 156 -147q0 -70 -46 -116 t-116 -46q-59 0 -131 33v67q49 -18 84 -18q39 0 64.5 25.5t25.5 66.5q0 47 -29.5 67.5t-99.5 22.5l59 141q-178 29 -282.5 217.5t-104.5 483.5z" />
<glyph unicode="&#xc8;" horiz-adv-x="911" d="M63 0v51q84 8 107 30.5t23 104.5v994q0 80 -23 103.5t-107 31.5v51h713l29 -307h-39q-31 147 -69 195.5t-122 48.5h-229v-562h227q53 0 72 32t23 136h41v-401h-41q-4 102 -24.5 136t-78.5 34h-219v-494q0 -72 21.5 -96.5t85.5 -24.5h112q100 0 137 52q49 68 82 215h39 l-39 -330h-721zM186 1763h199l207 -280h-82z" />
<glyph unicode="&#xc9;" horiz-adv-x="911" d="M63 0v51q84 8 107 30.5t23 104.5v994q0 80 -23 103.5t-107 31.5v51h713l29 -307h-39q-31 147 -69 195.5t-122 48.5h-229v-562h227q53 0 72 32t23 136h41v-401h-41q-4 102 -24.5 136t-78.5 34h-219v-494q0 -72 21.5 -96.5t85.5 -24.5h112q100 0 137 52q49 68 82 215h39 l-39 -330h-721zM358 1483l205 280h199l-322 -280h-82z" />
<glyph unicode="&#xca;" horiz-adv-x="911" d="M63 0v51q84 8 107 30.5t23 104.5v994q0 80 -23 103.5t-107 31.5v51h713l29 -307h-39q-31 147 -69 195.5t-122 48.5h-229v-562h227q53 0 72 32t23 136h41v-401h-41q-4 102 -24.5 136t-78.5 34h-219v-494q0 -72 21.5 -96.5t85.5 -24.5h112q100 0 137 52q49 68 82 215h39 l-39 -330h-721zM182 1485l234 276h92l231 -276h-80l-198 170l-197 -170h-82z" />
<glyph unicode="&#xcb;" horiz-adv-x="911" d="M63 0v51q84 8 107 30.5t23 104.5v994q0 80 -23 103.5t-107 31.5v51h713l29 -307h-39q-31 147 -69 195.5t-122 48.5h-229v-562h227q53 0 72 32t23 136h41v-401h-41q-4 102 -24.5 136t-78.5 34h-219v-494q0 -72 21.5 -96.5t85.5 -24.5h112q100 0 137 52q49 68 82 215h39 l-39 -330h-721zM197 1626q0 41 29.5 69.5t70.5 28.5q39 0 68.5 -28.5t29.5 -69.5t-28.5 -70.5t-69.5 -29.5t-70.5 29.5t-29.5 70.5zM492 1626q0 41 29.5 69.5t70.5 28.5q39 0 68.5 -28.5t29.5 -69.5t-28.5 -70.5t-69.5 -29.5t-70.5 29.5t-29.5 70.5z" />
<glyph unicode="&#xcc;" horiz-adv-x="534" d="M-18 1763h194l195 -280h-82zM61 -6v49q86 8 107.5 31.5t21.5 105.5v1006q0 82 -22.5 104.5t-106.5 32.5v49q137 -14 207 -14q68 0 203 14v-49q-84 -10 -105.5 -32.5t-21.5 -104.5v-1006q0 -82 21.5 -105.5t105.5 -31.5v-49q-131 16 -203 16q-74 0 -207 -16z" />
<glyph unicode="&#xcd;" horiz-adv-x="540" d="M63 -6v49q86 8 108 31.5t22 105.5v1006q0 82 -23 104.5t-107 32.5v49q137 -14 207 -14q68 0 203 14v-49q-84 -10 -105.5 -32.5t-21.5 -104.5v-1006q0 -82 21.5 -105.5t105.5 -31.5v-49q-131 16 -203 16q-74 0 -207 -16zM176 1483l193 280h194l-305 -280h-82z" />
<glyph unicode="&#xce;" horiz-adv-x="550" d="M10 1485l219 276h93l219 -276h-80l-185 170l-184 -170h-82zM70 -6v49q86 8 107.5 31.5t21.5 105.5v1006q0 82 -22.5 104.5t-106.5 32.5v49q137 -14 206 -14q68 0 203 14v-49q-84 -10 -105.5 -32.5t-21.5 -104.5v-1006q0 -82 21.5 -105.5t105.5 -31.5v-49q-131 16 -203 16 q-73 0 -206 -16z" />
<glyph unicode="&#xcf;" horiz-adv-x="542" d="M41 1626q0 41 29.5 69.5t70.5 28.5q39 0 69 -28.5t30 -69.5t-29 -70.5t-70 -29.5t-70.5 29.5t-29.5 70.5zM66 -6v49q84 8 105.5 31.5t21.5 105.5v1006q0 82 -21.5 104.5t-105.5 32.5v49q135 -14 202 -14q70 0 207 14v-49q-84 -10 -106.5 -32.5t-22.5 -104.5v-1006 q0 -82 22.5 -104.5t106.5 -32.5v-49q-133 16 -207 16q-71 0 -202 -16zM305 1626q0 41 30 69.5t70.5 28.5t69.5 -28.5t29 -69.5t-29 -70.5t-69.5 -29.5t-70.5 29.5t-30 70.5z" />
<glyph unicode="&#xd0;" horiz-adv-x="1060" d="M55 0v49q84 10 106.5 32.5t22.5 104.5v492h-129v76h129v426q0 82 -22.5 104.5t-106.5 30.5v51h398q145 0 243.5 -55.5t167.5 -175.5q109 -193 109 -453q0 -172 -53.5 -325.5t-141.5 -237.5q-125 -119 -327 -119h-396zM338 166q0 -68 18.5 -87.5t79.5 -19.5q199 0 283 154 q94 168 94 471q0 299 -94 467q-84 152 -275 152h-106v-549h242v-76h-242v-512z" />
<glyph unicode="&#xd1;" horiz-adv-x="1122" d="M61 1323v49q86 -6 140 -6q47 0 121 6l548 -1024v838q0 82 -22.5 104.5t-108.5 32.5v49q109 -10 166 -10q59 0 160 10v-49q-88 -10 -110.5 -32.5t-22.5 -104.5v-1227h-27q-18 37 -55 107q-6 14 -115 219l-479 897v-1002q0 -82 22.5 -105.5t110.5 -31.5v-49 q-113 10 -166 10q-57 0 -160 -10v49q88 8 111 31.5t23 105.5v1082q-38 53 -136 61zM295 1538q43 201 160 201q57 0 141 -74q51 -45 90 -45q68 0 98 106l47 -12q-10 -88 -36 -127q-53 -84 -127 -84q-55 0 -142 76q-45 43 -84 43q-66 0 -98 -100z" />
<glyph unicode="&#xd2;" horiz-adv-x="1056" d="M88 680q0 326 119 519.5t319 193.5q205 0 323 -194.5t118 -534.5q0 -184 -54.5 -349t-140.5 -243q-104 -96 -242 -97q-164 0 -278 131q-74 82 -119 240t-45 334zM242 1763h198l205 -280h-82zM250 692q0 -313 73.5 -486t206.5 -173q129 0 201 171t72 476q0 313 -72 484 t-203 171t-204.5 -170t-73.5 -473z" />
<glyph unicode="&#xd3;" horiz-adv-x="1056" d="M88 680q0 326 119 519.5t319 193.5q205 0 323 -194.5t118 -534.5q0 -184 -54.5 -349t-140.5 -243q-104 -96 -242 -97q-164 0 -278 131q-74 82 -119 240t-45 334zM250 692q0 -313 73.5 -486t206.5 -173q129 0 201 171t72 476q0 313 -72 484t-203 171t-204.5 -170 t-73.5 -473zM434 1483l205 280h199l-322 -280h-82z" />
<glyph unicode="&#xd4;" horiz-adv-x="1056" d="M88 680q0 326 119 519.5t319 193.5q205 0 323 -194.5t118 -534.5q0 -184 -54.5 -349t-140.5 -243q-104 -96 -242 -97q-164 0 -278 131q-74 82 -119 240t-45 334zM250 692q0 -313 73.5 -486t206.5 -173q129 0 201 171t72 476q0 313 -72 484t-203 171t-204.5 -170 t-73.5 -473zM250 1485l233 276h92l232 -276h-80l-199 170l-196 -170h-82z" />
<glyph unicode="&#xd5;" horiz-adv-x="1056" d="M88 680q0 326 119 519.5t319 193.5q205 0 323 -194.5t118 -534.5q0 -184 -54.5 -349t-140.5 -243q-104 -96 -242 -97q-164 0 -278 131q-74 82 -119 240t-45 334zM250 692q0 -313 73.5 -486t206.5 -173q129 0 201 171t72 476q0 313 -72 484t-203 171t-204.5 -170 t-73.5 -473zM270 1538q23 104 61 152.5t99 48.5q55 0 139 -74q51 -45 90 -45q37 0 60.5 24.5t38.5 81.5l47 -12q-10 -88 -37 -127q-49 -84 -125 -84q-55 0 -141 76q-49 43 -86 43q-66 0 -99 -100z" />
<glyph unicode="&#xd6;" horiz-adv-x="1056" d="M88 680q0 326 119 519.5t319 193.5q205 0 323 -194.5t118 -534.5q0 -184 -54.5 -349t-140.5 -243q-104 -96 -242 -97q-164 0 -278 131q-74 82 -119 240t-45 334zM250 692q0 -313 73.5 -486t206.5 -173q129 0 201 171t72 476q0 313 -72 484t-203 171t-204.5 -170 t-73.5 -473zM281 1626q0 41 29.5 69.5t70.5 28.5t69.5 -28.5t28.5 -69.5t-28.5 -70.5t-69.5 -29.5t-70.5 29.5t-29.5 70.5zM575 1626q0 41 30 69.5t71 28.5t69.5 -28.5t28.5 -69.5t-28.5 -70.5t-69.5 -29.5t-71 29.5t-30 70.5z" />
<glyph unicode="&#xd7;" d="M131 987l72 88l237 -299l238 295l65 -82l-235 -297l237 -297l-69 -90l-240 299l-235 -295l-68 84l238 295z" />
<glyph unicode="&#xd8;" horiz-adv-x="1056" d="M45 0l137 209q-94 193 -94 469q0 324 121 519.5t319 195.5q188 0 312 -176l98 149h74l-138 -211q92 -184 93 -459q0 -328 -120 -524.5t-319 -196.5q-188 0 -311 172l-96 -147h-76zM246 664q0 -168 30 -316l484 752q-78 236 -230 235q-133 0 -208.5 -178t-75.5 -493z M297 264q70 -231 231 -231q133 0 206 179t73 507q0 178 -27 299z" />
<glyph unicode="&#xd9;" horiz-adv-x="1110" d="M53 1323v49q137 -14 207 -14q68 0 203 14v-49q-84 -10 -105.5 -32.5t-21.5 -104.5v-793q0 -152 33 -211q63 -115 219 -114q129 0 205 82q70 76 69 256v780q0 82 -22.5 104.5t-108.5 32.5v49q109 -10 166 -10q61 0 158 10v-49q-86 -10 -108.5 -32.5t-22.5 -104.5v-768 q0 -174 -58 -273q-94 -168 -309 -168q-223 0 -321 177q-53 92 -54 256v776q0 82 -22.5 104.5t-106.5 32.5zM305 1763h199l207 -280h-82z" />
<glyph unicode="&#xda;" horiz-adv-x="1110" d="M53 1323v49q137 -14 207 -14q68 0 203 14v-49q-84 -10 -105.5 -32.5t-21.5 -104.5v-793q0 -152 33 -211q63 -115 219 -114q129 0 205 82q70 76 69 256v780q0 82 -22.5 104.5t-108.5 32.5v49q109 -10 166 -10q61 0 158 10v-49q-86 -10 -108.5 -32.5t-22.5 -104.5v-768 q0 -174 -58 -273q-94 -168 -309 -168q-223 0 -321 177q-53 92 -54 256v776q0 82 -22.5 104.5t-106.5 32.5zM492 1483l206 280h199l-322 -280h-83z" />
<glyph unicode="&#xdb;" horiz-adv-x="1110" d="M53 1323v49q137 -14 207 -14q68 0 203 14v-49q-84 -10 -105.5 -32.5t-21.5 -104.5v-793q0 -152 33 -211q63 -115 219 -114q129 0 205 82q70 76 69 256v780q0 82 -22.5 104.5t-108.5 32.5v49q109 -10 166 -10q61 0 158 10v-49q-86 -10 -108.5 -32.5t-22.5 -104.5v-768 q0 -174 -58 -273q-94 -168 -309 -168q-223 0 -321 177q-53 92 -54 256v776q0 82 -22.5 104.5t-106.5 32.5zM319 1485l232 276h92l234 -276h-82l-197 170l-197 -170h-82z" />
<glyph unicode="&#xdc;" horiz-adv-x="1110" d="M53 1323v49q137 -14 207 -14q68 0 203 14v-49q-84 -10 -105.5 -32.5t-21.5 -104.5v-793q0 -152 33 -211q63 -115 219 -114q129 0 205 82q70 76 69 256v780q0 82 -22.5 104.5t-108.5 32.5v49q109 -10 166 -10q61 0 158 10v-49q-86 -10 -108.5 -32.5t-22.5 -104.5v-768 q0 -174 -58 -273q-94 -168 -309 -168q-223 0 -321 177q-53 92 -54 256v776q0 82 -22.5 104.5t-106.5 32.5zM352 1626q0 41 30 69.5t71 28.5q39 0 68.5 -28.5t29.5 -69.5t-28.5 -70.5t-69.5 -29.5t-71 29.5t-30 70.5zM647 1626q0 41 30 69.5t71 28.5q39 0 68.5 -28.5 t29.5 -69.5t-29 -70.5t-69.5 -29.5t-70.5 29.5t-30 70.5z" />
<glyph unicode="&#xdd;" horiz-adv-x="989" d="M33 1323v49q117 -14 205 -14q84 0 204 14v-49q-63 -6 -87.5 -17.5t-24.5 -35.5q0 -23 14 -66l207 -524l201 526q16 43 16 64q0 25 -23.5 36t-87.5 17v49q88 -10 154 -10q68 0 152 10v-49q-70 -10 -96.5 -30.5t-51.5 -80.5l-240 -616v-416q0 -82 21.5 -105.5t105.5 -31.5 v-49q-131 16 -204 16q-72 0 -205 -16v49q86 8 107.5 31.5t21.5 105.5v416l-240 614q-27 63 -54 84t-95 29zM440 1483l207 280h197l-322 -280h-82z" />
<glyph unicode="&#xde;" horiz-adv-x="913" d="M63 -6v49q86 8 108 31.5t22 105.5v1006q0 82 -23 104.5t-107 32.5v49q137 -14 207 -14q68 0 203 14v-49q-84 -10 -105.5 -32.5t-21.5 -104.5v-37h137q199 0 283 -102q92 -109 92 -273q0 -174 -95 -273.5t-261 -99.5h-156v-221q0 -82 21.5 -105.5t105.5 -31.5v-49 q-131 16 -203 16q-74 0 -207 -16zM346 465h107q143 0 204 104q47 84 48 213q0 178 -82 254q-49 49 -160 49h-117v-620z" />
<glyph unicode="&#xdf;" horiz-adv-x="864" d="M45 -6v41q70 4 90.5 24.5t20.5 85.5v846q0 162 55 252q35 63 98.5 99t134.5 36q115 0 192 -89t77 -224q0 -104 -44 -176t-143 -125q262 -82 262 -395q0 -162 -75.5 -272.5t-186.5 -110.5q-70 0 -137 59v55q45 -29 84 -28q76 0 122 77.5t46 206.5q0 350 -281 367v63 q109 4 159 74t50 215q0 117 -33.5 180.5t-95.5 63.5q-141 0 -141 -250v-1073q-80 6 -115 6q-51 0 -139 -8z" />
<glyph unicode="&#xe0;" horiz-adv-x="784" d="M76 244q0 158 121 243q123 88 297 115v146q0 182 -123 182q-57 0 -91 -32t-34 -83q0 -23 2 -37v-22q0 -84 -72 -84q-59 0 -59 69q0 100 79.5 172t188.5 72q152 0 217 -123q35 -63 35 -205v-428q0 -102 13.5 -142t47.5 -40q10 0 41 6v-53q-55 -14 -96 -14q-59 0 -90 40 t-39 128q-41 -92 -89 -132t-124 -40q-100 0 -162.5 72.5t-62.5 189.5zM147 1430h183l159 -302h-71zM221 256q0 -88 33 -137t92 -49q78 0 113 72.5t35 230.5v176q-143 -33 -208 -102.5t-65 -190.5z" />
<glyph unicode="&#xe1;" horiz-adv-x="784" d="M76 244q0 158 121 243q123 88 297 115v146q0 182 -123 182q-57 0 -91 -32t-34 -83q0 -23 2 -37v-22q0 -84 -72 -84q-59 0 -59 69q0 100 79.5 172t188.5 72q152 0 217 -123q35 -63 35 -205v-428q0 -102 13.5 -142t47.5 -40q10 0 41 6v-53q-55 -14 -96 -14q-59 0 -90 40 t-39 128q-41 -92 -89 -132t-124 -40q-100 0 -162.5 72.5t-62.5 189.5zM221 256q0 -88 33 -137t92 -49q78 0 113 72.5t35 230.5v176q-143 -33 -208 -102.5t-65 -190.5zM319 1128l162 302h181l-269 -302h-74z" />
<glyph unicode="&#xe2;" horiz-adv-x="784" d="M76 244q0 158 121 243q123 88 297 115v146q0 182 -123 182q-57 0 -91 -32t-34 -83q0 -23 2 -37v-22q0 -84 -72 -84q-59 0 -59 69q0 100 79.5 172t188.5 72q152 0 217 -123q35 -63 35 -205v-428q0 -102 13.5 -142t47.5 -40q10 0 41 6v-53q-55 -14 -96 -14q-59 0 -90 40 t-39 128q-41 -92 -89 -132t-124 -40q-100 0 -162.5 72.5t-62.5 189.5zM139 1130l217 300h76l217 -300h-78l-178 177l-176 -177h-78zM221 256q0 -88 33 -137t92 -49q78 0 113 72.5t35 230.5v176q-143 -33 -208 -102.5t-65 -190.5z" />
<glyph unicode="&#xe3;" horiz-adv-x="784" d="M76 244q0 158 121 243q123 88 297 115v146q0 182 -123 182q-57 0 -91 -32t-34 -83q0 -23 2 -37v-22q0 -84 -72 -84q-59 0 -59 69q0 100 79.5 172t188.5 72q152 0 217 -123q35 -63 35 -205v-428q0 -102 13.5 -142t47.5 -40q10 0 41 6v-53q-55 -14 -96 -14q-59 0 -90 40 t-39 128q-41 -92 -89 -132t-124 -40q-100 0 -162.5 72.5t-62.5 189.5zM154 1198q25 109 59.5 155t91.5 46t127 -68q53 -51 90 -51q35 0 56.5 23.5t37.5 82.5l46 -12q-29 -211 -156 -211q-55 0 -133 76q-45 43 -80 43q-61 0 -94 -100zM221 256q0 -88 33 -137t92 -49 q78 0 113 72.5t35 230.5v176q-143 -33 -208 -102.5t-65 -190.5z" />
<glyph unicode="&#xe4;" horiz-adv-x="784" d="M76 244q0 158 121 243q123 88 297 115v146q0 182 -123 182q-57 0 -91 -32t-34 -83q0 -23 2 -37v-22q0 -84 -72 -84q-59 0 -59 69q0 100 79.5 172t188.5 72q152 0 217 -123q35 -63 35 -205v-428q0 -102 13.5 -142t47.5 -40q10 0 41 6v-53q-55 -14 -96 -14q-59 0 -90 40 t-39 128q-41 -92 -89 -132t-124 -40q-100 0 -162.5 72.5t-62.5 189.5zM152 1272q0 39 27.5 65.5t66.5 26.5t65.5 -27.5t26.5 -64.5q0 -39 -26.5 -66.5t-65.5 -27.5q-41 0 -67.5 27.5t-26.5 66.5zM221 256q0 -88 33 -137t92 -49q78 0 113 72.5t35 230.5v176 q-143 -33 -208 -102.5t-65 -190.5zM446 1272q0 39 28 65.5t67 26.5t65.5 -27.5t26.5 -64.5q0 -39 -26.5 -66.5t-65.5 -27.5q-41 0 -68 27.5t-27 66.5z" />
<glyph unicode="&#xe5;" horiz-adv-x="784" d="M76 244q0 158 121 243q123 88 297 115v146q0 182 -123 182q-57 0 -91 -32t-34 -83q0 -23 2 -37v-22q0 -84 -72 -84q-59 0 -59 69q0 100 79.5 172t188.5 72q152 0 217 -123q35 -63 35 -205v-428q0 -102 13.5 -142t47.5 -40q10 0 41 6v-53q-55 -14 -96 -14q-59 0 -90 40 t-39 128q-41 -92 -89 -132t-124 -40q-100 0 -162.5 72.5t-62.5 189.5zM221 256q0 -88 33 -137t92 -49q78 0 113 72.5t35 230.5v176q-143 -33 -208 -102.5t-65 -190.5zM250 1294.5q0 65.5 46 109.5t114 44q63 0 108 -46t45 -109.5t-46 -109.5t-109 -46q-66 0 -112 46 t-46 111.5zM317 1292q0 -37 26 -62.5t65 -25.5q35 0 61.5 25.5t26.5 62.5q0 35 -27 61.5t-61 26.5q-37 0 -64 -25.5t-27 -62.5z" />
<glyph unicode="&#xe6;" horiz-adv-x="1198" d="M74 240q0 289 430 335v173q0 182 -133 182q-53 0 -89 -31t-36 -76v-26q2 -14 2 -39q0 -86 -72 -86q-59 0 -59 69q0 100 78.5 172t187.5 72q147 0 217 -121q88 121 223 121q139 0 216 -124t83 -357h-473q2 -213 33 -303q51 -152 170 -152q86 0 139 68.5t68 197.5h65 q-14 -160 -91 -246.5t-202 -86.5q-201 0 -288 227q-39 -123 -95.5 -175t-146.5 -52q-100 0 -163.5 72.5t-63.5 185.5zM219 252q0 -82 34 -131t93 -49q82 0 120 72.5t38 228.5v141q-150 -23 -217.5 -85t-67.5 -177zM651 580h328q-10 352 -158 352q-139 0 -170 -352z" />
<glyph unicode="&#xe7;" horiz-adv-x="735" d="M78 475q0 229 89 372.5t234 143.5q102 0 168 -86l41 105h31v-338h-39q-41 264 -180 264q-90 0 -139.5 -121t-49.5 -344q0 -426 185 -426q145 0 174 270h65q-29 -305 -227 -335l-41 -101q147 -14 148 -139q0 -68 -44 -110t-116 -42q-59 0 -123 33v62q49 -18 82 -19 q37 0 60.5 24.5t23.5 63.5q0 43 -27.5 63.5t-93.5 24.5l61 140q-133 25 -207.5 156.5t-74.5 338.5z" />
<glyph unicode="&#xe8;" horiz-adv-x="772" d="M76 483q0 225 88 364.5t231 139.5q139 0 217 -125t84 -356h-473q6 -231 45 -336q49 -123 158 -123q84 0 138 69.5t69 198.5h63q-16 -160 -91 -247.5t-197 -87.5q-152 0 -242 136t-90 367zM150 1430h180l162 -302h-74zM227 580h326q-12 354 -160 354q-141 0 -166 -354z " />
<glyph unicode="&#xe9;" horiz-adv-x="772" d="M76 483q0 225 88 364.5t231 139.5q139 0 217 -125t84 -356h-473q6 -231 45 -336q49 -123 158 -123q84 0 138 69.5t69 198.5h63q-16 -160 -91 -247.5t-197 -87.5q-152 0 -242 136t-90 367zM227 580h326q-12 354 -160 354q-141 0 -166 -354zM317 1128l162 302h180 l-268 -302h-74z" />
<glyph unicode="&#xea;" horiz-adv-x="772" d="M76 483q0 225 88 364.5t231 139.5q139 0 217 -125t84 -356h-473q6 -231 45 -336q49 -123 158 -123q84 0 138 69.5t69 198.5h63q-16 -160 -91 -247.5t-197 -87.5q-152 0 -242 136t-90 367zM139 1130l215 300h80l215 -300h-78l-176 177l-178 -177h-78zM227 580h326 q-12 354 -160 354q-141 0 -166 -354z" />
<glyph unicode="&#xeb;" horiz-adv-x="772" d="M76 483q0 225 88 364.5t231 139.5q139 0 217 -125t84 -356h-473q6 -231 45 -336q49 -123 158 -123q84 0 138 69.5t69 198.5h63q-16 -160 -91 -247.5t-197 -87.5q-152 0 -242 136t-90 367zM164 1272q0 39 27.5 65.5t66.5 26.5t65.5 -27.5t26.5 -64.5q0 -39 -26.5 -66.5 t-65.5 -27.5q-41 0 -67.5 27.5t-26.5 66.5zM227 580h326q-12 354 -160 354q-141 0 -166 -354zM459 1272q0 39 27.5 65.5t66.5 26.5t65.5 -27.5t26.5 -64.5q0 -39 -26.5 -66.5t-65.5 -27.5q-41 0 -67.5 27.5t-26.5 66.5z" />
<glyph unicode="&#xec;" horiz-adv-x="468" d="M-20 1430h182l153 -302h-73zM51 -6v41q72 4 91.5 24.5t19.5 85.5v648q0 80 -17.5 99t-91.5 21v35q131 14 252 53v-856q0 -66 19.5 -86t91.5 -24v-41q-102 12 -182.5 12t-182.5 -12z" />
<glyph unicode="&#xed;" horiz-adv-x="489" d="M59 -6v41q72 4 91.5 24.5t19.5 85.5v648q0 80 -17.5 99t-91.5 21v35q129 14 252 53v-856q0 -66 20.5 -86t92.5 -24v-41q-106 12 -184 12q-81 0 -183 -12zM160 1128l153 302h181l-263 -302h-71z" />
<glyph unicode="&#xee;" horiz-adv-x="503" d="M6 1130l197 300h78l194 -300h-74l-159 177l-162 -177h-74zM68 -6v41q72 6 91 25.5t19 84.5v648q0 80 -17.5 99t-92.5 21v35q127 14 254 53v-856q0 -66 19 -86t91 -24v-41q-100 12 -182 12t-182 -12z" />
<glyph unicode="&#xef;" horiz-adv-x="483" d="M20 1272q0 39 28 65.5t67 26.5t65.5 -27.5t26.5 -64.5q0 -39 -26.5 -66.5t-65.5 -27.5q-41 0 -68 27.5t-27 66.5zM57 -6v41q72 6 91.5 25.5t19.5 84.5v648q0 78 -18.5 98t-92.5 22v35q133 14 254 53v-856q0 -66 20.5 -86t90.5 -24v-41q-100 12 -182.5 12t-182.5 -12z M254 1272q0 39 27.5 65.5t66.5 26.5t65.5 -27.5t26.5 -64.5q0 -39 -26.5 -66.5t-65.5 -27.5q-41 0 -67.5 27.5t-26.5 66.5z" />
<glyph unicode="&#xf0;" horiz-adv-x="788" d="M76 487q0 217 90 358.5t227 141.5q35 0 66 -18l-99 174l-120 -94l-31 57l121 96l-88 156l39 31l102 -144l127 101l31 -60l-121 -96l135 -213q90 -143 125 -251t35 -247q0 -219 -89 -359t-229 -140q-141 0 -231 142t-90 365zM227 498q0 -465 170 -465q166 0 166 440 q0 461 -168 461t-168 -436z" />
<glyph unicode="&#xf1;" horiz-adv-x="917" d="M59 -6v41q72 4 91.5 24.5t19.5 85.5v633q0 84 -14.5 104.5t-73.5 22.5h-21v37q131 20 220 62q12 -66 18 -179q82 160 223 160q133 0 199 -117q41 -78 41 -221v-502q0 -66 20.5 -86t89.5 -24v-41q-98 12 -178 12q-82 0 -178 -12v41q61 4 81.5 24.5t20.5 81.5v514 q0 125 -32.5 181.5t-106.5 56.5q-92 0 -135 -82q-31 -59 -31 -164v-506q0 -59 20.5 -81.5t80.5 -24.5v-41q-96 12 -176.5 12t-178.5 -12zM215 1198q25 111 58.5 156t93.5 45q57 0 127 -68q53 -51 90 -51q35 0 56.5 23.5t37.5 82.5l45 -12q-29 -211 -156 -211q-51 0 -133 76 q-45 43 -80 43q-61 0 -94 -100z" />
<glyph unicode="&#xf2;" horiz-adv-x="788" d="M76 483.5q0 223.5 91 365.5t236 142q141 0 226.5 -141t85.5 -377q0 -127 -41 -247t-107 -179q-78 -70 -172 -70q-141 0 -230 141.5t-89 365zM174 1430h182l160 -302h-74zM227 479q0 -449 168 -448.5t168 448.5q0 459 -166 459q-170 0 -170 -459z" />
<glyph unicode="&#xf3;" horiz-adv-x="788" d="M76 483.5q0 223.5 91 365.5t236 142q141 0 226.5 -141t85.5 -377q0 -127 -41 -247t-107 -179q-78 -70 -172 -70q-141 0 -230 141.5t-89 365zM227 479q0 -449 168 -448.5t168 448.5q0 459 -166 459q-170 0 -170 -459zM319 1128l162 302h181l-269 -302h-74z" />
<glyph unicode="&#xf4;" horiz-adv-x="788" d="M76 483.5q0 223.5 91 365.5t236 142q141 0 226.5 -141t85.5 -377q0 -127 -41 -247t-107 -179q-78 -70 -172 -70q-141 0 -230 141.5t-89 365zM141 1130l215 300h78l215 -300h-78l-176 177l-176 -177h-78zM227 479q0 -449 168 -448.5t168 448.5q0 459 -166 459 q-170 0 -170 -459z" />
<glyph unicode="&#xf5;" horiz-adv-x="788" d="M76 483.5q0 223.5 91 365.5t236 142q141 0 226.5 -141t85.5 -377q0 -127 -41 -247t-107 -179q-78 -70 -172 -70q-141 0 -230 141.5t-89 365zM152 1198q25 111 59.5 156t93.5 45q57 0 125 -68q53 -51 92 -51q35 0 56.5 23.5t37.5 82.5l46 -12q-29 -211 -158 -211 q-53 0 -131 76q-45 43 -80 43q-61 0 -94 -100zM227 479q0 -449 168 -448.5t168 448.5q0 459 -166 459q-170 0 -170 -459z" />
<glyph unicode="&#xf6;" horiz-adv-x="788" d="M76 483.5q0 223.5 91 365.5t236 142q141 0 226.5 -141t85.5 -377q0 -127 -41 -247t-107 -179q-78 -70 -172 -70q-141 0 -230 141.5t-89 365zM156 1272q0 39 27.5 65.5t66.5 26.5t65.5 -27.5t26.5 -64.5q0 -39 -26.5 -66.5t-65.5 -27.5q-41 0 -67.5 27.5t-26.5 66.5z M227 479q0 -449 168 -448.5t168 448.5q0 459 -166 459q-170 0 -170 -459zM449 1272q0 39 27.5 65.5t66.5 26.5t65.5 -27.5t26.5 -64.5q0 -39 -26.5 -66.5t-65.5 -27.5t-66.5 27.5t-27.5 66.5z" />
<glyph unicode="&#xf7;" d="M98 631v119h682v-119h-682zM340 410q0 41 29.5 69.5t70.5 28.5q39 0 69 -28.5t30 -69.5t-29 -71t-70 -30t-70.5 30t-29.5 71zM342 975q0 41 29.5 69.5t70.5 28.5t70 -28.5t29 -69.5t-29 -71t-70 -30t-70.5 30t-29.5 71z" />
<glyph unicode="&#xf8;" horiz-adv-x="788" d="M43 -6l100 158q-68 141 -67 327q0 221 92 364.5t235 143.5q121 0 205 -108l62 94h65l-94 -148q72 -139 72 -333q0 -223 -91.5 -367.5t-230.5 -144.5q-123 0 -215 118l-65 -104h-68zM221 475q0 -98 15 -186l301 483q-39 158 -142 158q-82 0 -128 -120t-46 -335zM250 205 q18 -76 58 -122t87 -46q82 0 127 122t45 341q0 106 -16 188z" />
<glyph unicode="&#xf9;" horiz-adv-x="901" d="M37 913v35q127 14 252 53v-692q0 -125 33.5 -179t109.5 -54q164 0 164 260v457q0 76 -16.5 97t-75.5 21l-19 2v35q127 14 254 53v-819q0 -74 15.5 -92t76.5 -20h21v-37q-135 -16 -227 -53q-12 113 -13 157v23q-39 -92 -92 -134t-133 -42q-137 0 -201 112q-41 76 -41 215 v482q0 76 -16 97t-74 21zM205 1430h180l162 -302h-74z" />
<glyph unicode="&#xfa;" horiz-adv-x="901" d="M37 913v35q127 14 252 53v-692q0 -125 33.5 -179t109.5 -54q164 0 164 260v457q0 76 -16.5 97t-75.5 21l-19 2v35q127 14 254 53v-819q0 -74 15.5 -92t76.5 -20h21v-37q-135 -16 -227 -53q-12 113 -13 157v23q-39 -92 -92 -134t-133 -42q-137 0 -201 112q-41 76 -41 215 v482q0 76 -16 97t-74 21zM358 1128l162 302h180l-268 -302h-74z" />
<glyph unicode="&#xfb;" horiz-adv-x="901" d="M37 913v35q127 14 252 53v-692q0 -125 33.5 -179t109.5 -54q164 0 164 260v457q0 76 -16.5 97t-75.5 21l-19 2v35q127 14 254 53v-819q0 -74 15.5 -92t76.5 -20h21v-37q-135 -16 -227 -53q-12 113 -13 157v23q-39 -92 -92 -134t-133 -42q-137 0 -201 112q-41 76 -41 215 v482q0 76 -16 97t-74 21zM188 1130l218 300h75l217 -300h-77l-179 177l-176 -177h-78z" />
<glyph unicode="&#xfc;" horiz-adv-x="901" d="M37 913v35q127 14 252 53v-692q0 -125 33.5 -179t109.5 -54q164 0 164 260v457q0 76 -16.5 97t-75.5 21l-19 2v35q127 14 254 53v-819q0 -74 15.5 -92t76.5 -20h21v-37q-135 -16 -227 -53q-12 113 -13 157v23q-39 -92 -92 -134t-133 -42q-137 0 -201 112q-41 76 -41 215 v482q0 76 -16 97t-74 21zM205 1272q0 39 27.5 65.5t66.5 26.5t65.5 -27.5t26.5 -64.5q0 -39 -26.5 -66.5t-65.5 -27.5q-41 0 -67.5 27.5t-26.5 66.5zM498 1272q0 39 27.5 65.5t66.5 26.5t65.5 -27.5t26.5 -64.5q0 -39 -26.5 -66.5t-65.5 -27.5t-66.5 27.5t-27.5 66.5z" />
<glyph unicode="&#xfd;" horiz-adv-x="837" d="M27 932v41q92 -10 174 -10q80 0 172 10v-41q-86 -8 -86 -41q0 -18 12 -57l162 -580l172 571q14 47 14 64q2 23 -20.5 32t-73.5 11v41q66 -8 125 -8t143 8v-41q-55 -8 -82.5 -29.5t-42.5 -71.5l-309 -1001q-37 -123 -93 -177t-144 -54q-12 0 -23 2v102h16q74 0 120 41 t77 135l51 154l-239 803q-18 57 -41 74.5t-84 21.5zM362 1128l160 302h183l-269 -302h-74z" />
<glyph unicode="&#xfe;" horiz-adv-x="870" d="M47 -369q72 4 91.5 24.5t19.5 86.5v1436q0 80 -18.5 99t-92.5 21v37q135 14 254 54v-543q70 139 191 139q133 0 219 -141.5t86 -360.5q0 -223 -84 -362t-217 -139q-66 0 -110 32.5t-85 110.5v-383q0 -66 19.5 -86.5t91.5 -24.5v-41q-111 12 -187 13q-78 0 -178 -13v41z M299 496q0 -457 180 -457q166 0 166 442q0 446 -170 447q-84 0 -130 -111.5t-46 -320.5z" />
<glyph unicode="&#xff;" horiz-adv-x="837" d="M27 932v41q92 -10 174 -10q80 0 172 10v-41q-86 -8 -86 -41q0 -18 12 -57l162 -580l172 571q14 47 14 64q2 23 -20.5 32t-73.5 11v41q66 -8 125 -8t143 8v-41q-55 -8 -82.5 -29.5t-42.5 -71.5l-309 -1001q-37 -123 -93 -177t-144 -54q-12 0 -23 2v102h16q74 0 120 41 t77 135l51 154l-239 803q-18 57 -41 74.5t-84 21.5zM207 1272q0 39 27.5 65.5t66.5 26.5t65.5 -27.5t26.5 -64.5q0 -39 -26.5 -66.5t-65.5 -27.5t-66.5 27.5t-27.5 66.5zM502 1272q0 39 27.5 65.5t66.5 26.5t65.5 -27.5t26.5 -64.5q0 -39 -26.5 -66.5t-65.5 -27.5 t-66.5 27.5t-27.5 66.5z" />
<glyph unicode="&#x152;" horiz-adv-x="1519" d="M86 682q0 319 118 514t310 195q195 0 297 -215v190h578l28 -307h-39q-31 147 -68.5 195.5t-121.5 48.5h-240v-562h238q49 0 63 23q25 33 31 145h41v-401h-41q-4 102 -24.5 136t-77.5 34h-230v-494q0 -72 23.5 -96.5t89.5 -24.5h117q96 0 140 54.5t79 212.5h39l-39 -330 h-582v195q-70 -121 -135.5 -170.5t-159.5 -49.5q-154 0 -270 129q-72 82 -118 242t-46 336zM246 686q0 -309 75.5 -480t213.5 -171q131 0 204.5 168t73.5 461q0 324 -72.5 495.5t-210.5 171.5q-135 0 -209.5 -169t-74.5 -476z" />
<glyph unicode="&#x153;" horiz-adv-x="1257" d="M76 481q0 223 92 364.5t235.5 141.5t231.5 -160q96 158 246 158q143 0 220 -129t81 -373h-473q2 -197 32 -284q51 -150 170 -150q84 0 138.5 69.5t68.5 196.5h66q-16 -160 -92 -246.5t-199 -86.5q-162 0 -260 161q-96 -164 -240 -163q-139 0 -228 140t-89 361zM227 475 q0 -442 168 -442q80 0 124 111.5t44 316.5q0 473 -164 473q-172 0 -172 -459zM711 559h327q-12 377 -159 377q-141 0 -168 -377z" />
<glyph unicode="&#x178;" horiz-adv-x="989" d="M33 1323v49q117 -14 205 -14q84 0 204 14v-49q-63 -6 -87.5 -17.5t-24.5 -35.5q0 -23 14 -66l207 -524l201 526q16 43 16 64q0 25 -23.5 36t-87.5 17v49q88 -10 154 -10q68 0 152 10v-49q-70 -10 -96.5 -30.5t-51.5 -80.5l-240 -616v-416q0 -82 21.5 -105.5t105.5 -31.5 v-49q-131 16 -204 16q-72 0 -205 -16v49q86 8 107.5 31.5t21.5 105.5v416l-240 614q-27 63 -54 84t-95 29zM293 1626q0 41 29.5 69.5t70.5 28.5t70 -28.5t29 -69.5t-29 -70.5t-70 -29.5t-70.5 29.5t-29.5 70.5zM588 1626q0 41 29.5 69.5t70.5 28.5t69.5 -28.5t28.5 -69.5 t-28.5 -70.5t-69.5 -29.5t-70.5 29.5t-29.5 70.5z" />
<glyph unicode="&#x2c6;" horiz-adv-x="839" d="M166 1130l215 300h80l215 -300h-78l-178 177l-176 -177h-78z" />
<glyph unicode="&#x2dc;" horiz-adv-x="839" d="M166 1198q25 111 59.5 156t93.5 45q35 0 58.5 -14.5t87.5 -71.5q35 -33 69.5 -33t56 23.5t40.5 82.5l43 -12q-12 -100 -53 -155.5t-103 -55.5q-51 0 -133 76q-43 43 -80 43q-59 0 -94 -100z" />
<glyph unicode="&#x2000;" horiz-adv-x="894" />
<glyph unicode="&#x2001;" horiz-adv-x="1788" />
<glyph unicode="&#x2002;" horiz-adv-x="894" />
<glyph unicode="&#x2003;" horiz-adv-x="1788" />
<glyph unicode="&#x2004;" horiz-adv-x="596" />
<glyph unicode="&#x2005;" horiz-adv-x="447" />
<glyph unicode="&#x2006;" horiz-adv-x="298" />
<glyph unicode="&#x2007;" horiz-adv-x="298" />
<glyph unicode="&#x2008;" horiz-adv-x="223" />
<glyph unicode="&#x2009;" horiz-adv-x="357" />
<glyph unicode="&#x200a;" horiz-adv-x="99" />
<glyph unicode="&#x2010;" horiz-adv-x="440" d="M10 502v92h420v-92h-420z" />
<glyph unicode="&#x2011;" horiz-adv-x="440" d="M10 502v92h420v-92h-420z" />
<glyph unicode="&#x2012;" horiz-adv-x="440" d="M10 502v92h420v-92h-420z" />
<glyph unicode="&#x2013;" d="M147 504v88h582v-88h-582z" />
<glyph unicode="&#x2014;" horiz-adv-x="980" d="M10 504v88h961v-88h-961z" />
<glyph unicode="&#x2018;" horiz-adv-x="409" d="M100 1036q0 158 129 338h78q-45 -49 -82 -129t-41 -135h6q6 4 15 4q35 0 56.5 -26.5t21.5 -69.5q0 -45 -26 -76t-64 -31q-41 0 -67 34t-26 91z" />
<glyph unicode="&#x2019;" horiz-adv-x="409" d="M102 924q49 59 85 135t38 129h-6q-6 -2 -14 -2q-35 0 -56.5 26.5t-21.5 69.5q0 47 25.5 77t64.5 30q41 0 66.5 -34t25.5 -91q0 -147 -129 -340h-78z" />
<glyph unicode="&#x201a;" horiz-adv-x="409" d="M102 -274q47 57 84 135t39 131h-6q-6 -4 -14 -4q-35 0 -56.5 26.5t-21.5 69.5q0 47 25.5 76.5t64.5 29.5q41 0 66.5 -33.5t25.5 -90.5q0 -147 -129 -340h-78z" />
<glyph unicode="&#x201c;" horiz-adv-x="659" d="M102 1036q0 158 129 338h78q-45 -49 -82 -129t-41 -135h7q6 4 14 4q35 0 56.5 -26.5t21.5 -69.5q0 -45 -26 -76t-64 -31q-41 0 -67 34t-26 91zM350 1036q0 162 129 338h80q-45 -49 -83 -129t-40 -135h6q6 4 15 4q35 0 56.5 -26.5t21.5 -69.5q0 -45 -26 -76t-65 -31 q-43 0 -68.5 34t-25.5 91z" />
<glyph unicode="&#x201d;" horiz-adv-x="659" d="M102 924q49 59 85 135t38 129h-6q-6 -2 -14 -2q-35 0 -56.5 26.5t-21.5 69.5q0 47 25.5 77t64.5 30q41 0 66.5 -34t25.5 -91q0 -147 -129 -340h-78zM350 924q49 57 84 134t39 130h-6q-6 -2 -12 -2q-35 0 -56.5 26.5t-21.5 69.5q0 47 25.5 77t64.5 30q41 0 66.5 -34 t25.5 -91q0 -152 -129 -340h-80z" />
<glyph unicode="&#x201e;" horiz-adv-x="659" d="M102 -274q47 57 84 135t39 131h-6q-6 -4 -14 -4q-35 0 -56.5 26.5t-21.5 69.5q0 47 25.5 76.5t64.5 29.5q41 0 66.5 -33.5t25.5 -90.5q0 -147 -129 -340h-78zM350 -274q49 59 85 135t38 131h-6q-6 -4 -14 -4q-35 0 -55.5 26.5t-20.5 69.5q0 47 25.5 76.5t64.5 29.5 q41 0 66.5 -33.5t25.5 -90.5q0 -152 -129 -340h-80z" />
<glyph unicode="&#x2022;" horiz-adv-x="1132" d="M301 690.5q0 110.5 79 187t191 76.5q106 0 183 -77.5t77 -186.5q0 -111 -77.5 -188.5t-186.5 -77.5q-111 0 -188.5 78t-77.5 188.5z" />
<glyph unicode="&#x2026;" horiz-adv-x="1157" d="M98 86q0 41 30 69.5t71 28.5q39 0 68.5 -28.5t29.5 -69.5t-28.5 -70.5t-69.5 -29.5t-71 29.5t-30 70.5zM483 86q0 41 30 69.5t71 28.5q39 0 68.5 -28.5t29.5 -69.5t-28.5 -70.5t-69.5 -29.5t-71 29.5t-30 70.5zM856 86q0 41 29.5 69.5t70.5 28.5q39 0 69 -28.5t30 -69.5 t-29 -70.5t-70 -29.5t-70.5 29.5t-29.5 70.5z" />
<glyph unicode="&#x202f;" horiz-adv-x="357" />
<glyph unicode="&#x2039;" horiz-adv-x="450" d="M98 489l199 478h53l-135 -478l135 -489h-53z" />
<glyph unicode="&#x203a;" horiz-adv-x="456" d="M106 0l136 489l-136 478h54l198 -478l-198 -489h-54z" />
<glyph unicode="&#x205f;" horiz-adv-x="447" />
<glyph unicode="&#x20ac;" d="M2 516l45 90h123q0 90 2 133h-137l43 90h102q33 254 132.5 389.5t254.5 135.5q135 0 209 -115l41 113h33v-400h-41q-51 324 -221 324q-96 0 -156 -92q-70 -104 -94 -355h412l-33 -90h-385v-20v-41v-51v-21h338l-33 -90h-301q37 -451 262 -450q57 0 96 22.5t94 87.5 q37 45 62 90v-145q-109 -145 -279 -146q-166 0 -268 140.5t-127 400.5h-174z" />
<glyph unicode="&#x2122;" horiz-adv-x="1445" d="M37 1167l31 199h452l31 -199h-35q-14 82 -40.5 115t-78.5 33h-55v-656q0 -47 15.5 -60t68.5 -13v-43q-66 8 -119 8q-82 0 -147 -8v43q53 2 68.5 15t15.5 58v656h-49q-53 0 -80 -33t-41 -115h-37zM616 543v43q53 2 66.5 14t17.5 59l21 594q0 45 -14.5 58.5t-69.5 15.5v43 q41 -4 88 -4q37 0 102 6l185 -600l188 600q70 -6 100 -6q45 0 86 4v-43q-55 -4 -69 -16.5t-14 -57.5l10 -594q2 -47 15 -59t69 -14v-45q-80 10 -133 10q-51 0 -131 -10v45q55 4 69.5 16t14.5 57l-9 590l-168 -538l-43 -142h-22q-8 29 -19.5 68t-23.5 78l-166 534l-21 -590 v-8q0 -39 16.5 -52t67.5 -13v-43q-80 6 -104 6q-37 0 -109 -6z" />
<glyph unicode="&#xe000;" horiz-adv-x="975" d="M0 0v975h975v-975h-975z" />
</font>
</defs>
</svg>
